<?xml version="1.0"?>
<!-- Generated by SVGo -->
<svg width="438.627mm" height="133.827mm"
     viewBox="0.000 0.000 438.627 133.827"
     xmlns="http://www.w3.org/2000/svg" 
     xmlns:xlink="http://www.w3.org/1999/xlink">
<polygon points="430.627,5.001 430.862,5.010 431.096,5.037 431.327,5.083 431.554,5.147 431.775,5.229 431.988,5.327 432.194,5.443 432.390,5.573 432.575,5.719 432.748,5.879 432.908,6.052 433.054,6.237 433.184,6.433 433.300,6.639 433.398,6.852 433.480,7.073 433.544,7.300 433.590,7.531 433.617,7.765 433.627,8.001 433.627,125.827 433.617,126.062 433.590,126.296 433.544,126.527 433.480,126.754 433.398,126.975 433.300,127.188 433.184,127.394 433.054,127.590 432.908,127.775 432.748,127.948 432.575,128.108 432.390,128.253 432.194,128.384 431.988,128.500 431.775,128.598 431.554,128.680 431.327,128.744 431.096,128.789 430.862,128.817 430.627,128.827 8.001,128.827 7.765,128.817 7.531,128.789 7.300,128.744 7.073,128.680 6.852,128.598 6.639,128.500 6.433,128.384 6.237,128.253 6.052,128.108 5.879,127.948 5.719,127.775 5.573,127.590 5.443,127.394 5.327,127.188 5.229,126.975 5.147,126.754 5.083,126.527 5.037,126.296 5.010,126.062 5.000,125.826 5.001,8.001 5.010,7.765 5.037,7.531 5.083,7.300 5.147,7.073 5.229,6.852 5.327,6.639 5.443,6.433 5.573,6.237 5.719,6.052 5.879,5.879 6.052,5.719 6.237,5.573 6.433,5.443 6.639,5.327 6.852,5.229 7.073,5.147 7.300,5.083 7.531,5.037 7.765,5.010 8.001,5.000" style="fill:none;stroke-width:0.050000mm;stroke:black"/>
<polygon points="128.968,112.301 128.968,113.301 128.169,113.301 128.169,116.401 128.968,116.401 128.968,117.001 89.344,117.001 89.344,113.771 82.594,113.771 82.594,117.001 81.769,117.001 81.769,119.801 82.594,119.801 82.594,126.071 84.319,126.071 84.319,127.271 87.619,127.271 87.619,126.071 89.344,126.071 89.344,121.601 128.968,121.601 128.968,122.201 128.169,122.201 128.169,125.301 128.968,125.301 128.968,126.301 142.969,126.301 142.969,125.301 143.769,125.301 143.769,122.201 142.969,122.201 142.969,121.601 182.594,121.601 182.594,126.071 184.319,126.071 184.319,127.271 187.619,127.271 187.619,126.071 189.344,126.071 189.344,119.801 190.169,119.801 190.169,117.001 189.344,117.001 189.344,113.771 182.594,113.771 182.594,117.001 142.969,117.001 142.969,116.401 143.769,116.401 143.769,113.301 142.969,113.301 142.969,112.301" style="fill:none;stroke-width:0.050000mm;stroke:black"/>
<polygon points="369.476,112.301 369.476,113.301 368.676,113.301 368.676,116.401 369.476,116.401 369.476,117.001 367.951,117.001 367.951,113.771 361.201,113.771 361.201,117.001 360.376,117.001 360.376,119.801 361.201,119.801 361.201,126.071 362.926,126.071 362.926,127.271 366.226,127.271 366.226,126.071 367.951,126.071 367.951,121.601 369.476,121.601 369.476,122.201 368.676,122.201 368.676,125.301 369.476,125.301 369.476,126.301 383.476,126.301 383.476,125.301 384.276,125.301 384.276,122.201 383.476,122.201 383.476,121.601 385.001,121.601 385.001,126.071 386.726,126.071 386.726,127.271 390.026,127.271 390.026,126.071 391.751,126.071 391.751,119.801 392.576,119.801 392.576,117.001 391.751,117.001 391.751,113.771 385.001,113.771 385.001,117.001 383.476,117.001 383.476,116.401 384.276,116.401 384.276,113.301 383.476,113.301 383.476,112.301" style="fill:none;stroke-width:0.050000mm;stroke:black"/>
<polygon points="9.907,112.301 9.907,113.301 9.107,113.301 9.107,116.401 9.907,116.401 9.907,122.201 9.107,122.201 9.107,125.301 9.907,125.301 9.907,126.301 23.907,126.301 23.907,125.301 24.707,125.301 24.707,122.201 23.907,122.201 23.907,116.401 24.707,116.401 24.707,113.301 23.907,113.301 23.907,112.301" style="fill:none;stroke-width:0.050000mm;stroke:black"/>
<polygon points="33.719,112.301 33.719,113.301 32.919,113.301 32.919,116.401 33.719,116.401 33.719,122.201 32.919,122.201 32.919,125.301 33.719,125.301 33.719,126.301 47.719,126.301 47.719,125.301 48.519,125.301 48.519,122.201 47.719,122.201 47.719,116.401 48.519,116.401 48.519,113.301 47.719,113.301 47.719,112.301" style="fill:none;stroke-width:0.050000mm;stroke:black"/>
<polygon points="57.532,112.301 57.532,113.301 56.732,113.301 56.732,116.401 57.532,116.401 57.532,122.201 56.732,122.201 56.732,125.301 57.532,125.301 57.532,126.301 71.532,126.301 71.532,125.301 72.332,125.301 72.332,122.201 71.532,122.201 71.532,116.401 72.332,116.401 72.332,113.301 71.532,113.301 71.532,112.301" style="fill:none;stroke-width:0.050000mm;stroke:black"/>
<polygon points="200.407,112.301 200.407,113.301 199.607,113.301 199.607,116.401 200.407,116.401 200.407,122.201 199.607,122.201 199.607,125.301 200.407,125.301 200.407,126.301 214.407,126.301 214.407,125.301 215.207,125.301 215.207,122.201 214.407,122.201 214.407,116.401 215.207,116.401 215.207,113.301 214.407,113.301 214.407,112.301" style="fill:none;stroke-width:0.050000mm;stroke:black"/>
<polygon points="224.219,112.301 224.219,113.301 223.419,113.301 223.419,116.401 224.219,116.401 224.219,122.201 223.419,122.201 223.419,125.301 224.219,125.301 224.219,126.301 238.219,126.301 238.219,125.301 239.019,125.301 239.019,122.201 238.219,122.201 238.219,116.401 239.019,116.401 239.019,113.301 238.219,113.301 238.219,112.301" style="fill:none;stroke-width:0.050000mm;stroke:black"/>
<polygon points="248.032,112.301 248.032,113.301 247.232,113.301 247.232,116.401 248.032,116.401 248.032,122.201 247.232,122.201 247.232,125.301 248.032,125.301 248.032,126.301 262.032,126.301 262.032,125.301 262.832,125.301 262.832,122.201 262.032,122.201 262.032,116.401 262.832,116.401 262.832,113.301 262.032,113.301 262.032,112.301" style="fill:none;stroke-width:0.050000mm;stroke:black"/>
<polygon points="271.844,112.301 271.844,113.301 271.044,113.301 271.044,116.401 271.844,116.401 271.844,122.201 271.044,122.201 271.044,125.301 271.844,125.301 271.844,126.301 285.844,126.301 285.844,125.301 286.644,125.301 286.644,122.201 285.844,122.201 285.844,116.401 286.644,116.401 286.644,113.301 285.844,113.301 285.844,112.301" style="fill:none;stroke-width:0.050000mm;stroke:black"/>
<polygon points="298.038,112.301 298.038,113.301 297.238,113.301 297.238,116.401 298.038,116.401 298.038,122.201 297.238,122.201 297.238,125.301 298.038,125.301 298.038,126.301 312.038,126.301 312.038,125.301 312.838,125.301 312.838,122.201 312.038,122.201 312.038,116.401 312.838,116.401 312.838,113.301 312.038,113.301 312.038,112.301" style="fill:none;stroke-width:0.050000mm;stroke:black"/>
<polygon points="317.088,112.301 317.088,113.301 316.288,113.301 316.288,116.401 317.088,116.401 317.088,122.201 316.288,122.201 316.288,125.301 317.088,125.301 317.088,126.301 331.088,126.301 331.088,125.301 331.888,125.301 331.888,122.201 331.088,122.201 331.088,116.401 331.888,116.401 331.888,113.301 331.088,113.301 331.088,112.301" style="fill:none;stroke-width:0.050000mm;stroke:black"/>
<polygon points="336.138,112.301 336.138,113.301 335.338,113.301 335.338,116.401 336.138,116.401 336.138,122.201 335.338,122.201 335.338,125.301 336.138,125.301 336.138,126.301 350.138,126.301 350.138,125.301 350.938,125.301 350.938,122.201 350.138,122.201 350.138,116.401 350.938,116.401 350.938,113.301 350.138,113.301 350.138,112.301" style="fill:none;stroke-width:0.050000mm;stroke:black"/>
<polygon points="398.051,112.301 398.051,113.301 397.251,113.301 397.251,116.401 398.051,116.401 398.051,122.201 397.251,122.201 397.251,125.301 398.051,125.301 398.051,126.301 412.051,126.301 412.051,125.301 412.851,125.301 412.851,122.201 412.051,122.201 412.051,116.401 412.851,116.401 412.851,113.301 412.051,113.301 412.051,112.301" style="fill:none;stroke-width:0.050000mm;stroke:black"/>
<polygon points="423.601,93.676 423.601,94.501 417.331,94.501 417.331,96.226 416.131,96.226 416.131,99.526 417.331,99.526 417.331,101.251 421.801,101.251 421.801,102.776 421.201,102.776 421.201,101.976 418.101,101.976 418.101,102.776 417.101,102.776 417.101,116.776 418.101,116.776 418.101,117.576 421.201,117.576 421.201,116.776 421.801,116.776 421.801,118.301 417.331,118.301 417.331,120.026 416.131,120.026 416.131,123.326 417.331,123.326 417.331,125.051 423.601,125.051 423.601,125.876 426.401,125.876 426.401,125.051 429.631,125.051 429.631,118.301 426.401,118.301 426.401,116.776 427.001,116.776 427.001,117.576 430.101,117.576 430.101,116.776 431.101,116.776 431.101,102.776 430.101,102.776 430.101,101.976 427.001,101.976 427.001,102.776 426.401,102.776 426.401,101.251 429.631,101.251 429.631,94.501 426.401,94.501 426.401,93.676" style="fill:none;stroke-width:0.050000mm;stroke:black"/>
<polygon points="257.556,93.251 257.556,94.251 256.756,94.251 256.756,97.351 257.556,97.351 257.556,97.951 256.032,97.951 256.032,94.721 249.282,94.721 249.282,97.951 248.457,97.951 248.457,100.751 249.282,100.751 249.282,107.021 251.007,107.021 251.007,108.221 254.307,108.221 254.307,107.021 256.032,107.021 256.032,102.551 257.556,102.551 257.556,103.151 256.756,103.151 256.756,106.251 257.556,106.251 257.556,107.251 271.557,107.251 271.557,106.251 272.357,106.251 272.357,103.151 271.557,103.151 271.557,102.551 273.082,102.551 273.082,107.021 274.807,107.021 274.807,108.221 278.107,108.221 278.107,107.021 279.832,107.021 279.832,100.751 280.657,100.751 280.657,97.951 279.832,97.951 279.832,94.721 273.082,94.721 273.082,97.951 271.557,97.951 271.557,97.351 272.357,97.351 272.357,94.251 271.557,94.251 271.557,93.251" style="fill:none;stroke-width:0.050000mm;stroke:black"/>
<polygon points="9.907,93.251 9.907,94.251 9.107,94.251 9.107,97.351 9.907,97.351 9.907,103.151 9.107,103.151 9.107,106.251 9.907,106.251 9.907,107.251 23.907,107.251 23.907,106.251 24.707,106.251 24.707,103.151 23.907,103.151 23.907,97.351 24.707,97.351 24.707,94.251 23.907,94.251 23.907,93.251" style="fill:none;stroke-width:0.050000mm;stroke:black"/>
<polygon points="31.338,93.251 31.338,94.251 30.538,94.251 30.538,97.351 31.338,97.351 31.338,103.151 30.538,103.151 30.538,106.251 31.338,106.251 31.338,107.251 45.338,107.251 45.338,106.251 46.138,106.251 46.138,103.151 45.338,103.151 45.338,97.351 46.138,97.351 46.138,94.251 45.338,94.251 45.338,93.251" style="fill:none;stroke-width:0.050000mm;stroke:black"/>
<polygon points="50.388,93.251 50.388,94.251 49.588,94.251 49.588,97.351 50.388,97.351 50.388,103.151 49.588,103.151 49.588,106.251 50.388,106.251 50.388,107.251 64.388,107.251 64.388,106.251 65.188,106.251 65.188,103.151 64.388,103.151 64.388,97.351 65.188,97.351 65.188,94.251 64.388,94.251 64.388,93.251" style="fill:none;stroke-width:0.050000mm;stroke:black"/>
<polygon points="69.438,93.251 69.438,94.251 68.638,94.251 68.638,97.351 69.438,97.351 69.438,103.151 68.638,103.151 68.638,106.251 69.438,106.251 69.438,107.251 83.438,107.251 83.438,106.251 84.238,106.251 84.238,103.151 83.438,103.151 83.438,97.351 84.238,97.351 84.238,94.251 83.438,94.251 83.438,93.251" style="fill:none;stroke-width:0.050000mm;stroke:black"/>
<polygon points="88.488,93.251 88.488,94.251 87.688,94.251 87.688,97.351 88.488,97.351 88.488,103.151 87.688,103.151 87.688,106.251 88.488,106.251 88.488,107.251 102.488,107.251 102.488,106.251 103.288,106.251 103.288,103.151 102.488,103.151 102.488,97.351 103.288,97.351 103.288,94.251 102.488,94.251 102.488,93.251" style="fill:none;stroke-width:0.050000mm;stroke:black"/>
<polygon points="107.538,93.251 107.538,94.251 106.738,94.251 106.738,97.351 107.538,97.351 107.538,103.151 106.738,103.151 106.738,106.251 107.538,106.251 107.538,107.251 121.538,107.251 121.538,106.251 122.338,106.251 122.338,103.151 121.538,103.151 121.538,97.351 122.338,97.351 122.338,94.251 121.538,94.251 121.538,93.251" style="fill:none;stroke-width:0.050000mm;stroke:black"/>
<polygon points="126.588,93.251 126.588,94.251 125.788,94.251 125.788,97.351 126.588,97.351 126.588,103.151 125.788,103.151 125.788,106.251 126.588,106.251 126.588,107.251 140.588,107.251 140.588,106.251 141.388,106.251 141.388,103.151 140.588,103.151 140.588,97.351 141.388,97.351 141.388,94.251 140.588,94.251 140.588,93.251" style="fill:none;stroke-width:0.050000mm;stroke:black"/>
<polygon points="145.638,93.251 145.638,94.251 144.838,94.251 144.838,97.351 145.638,97.351 145.638,103.151 144.838,103.151 144.838,106.251 145.638,106.251 145.638,107.251 159.638,107.251 159.638,106.251 160.438,106.251 160.438,103.151 159.638,103.151 159.638,97.351 160.438,97.351 160.438,94.251 159.638,94.251 159.638,93.251" style="fill:none;stroke-width:0.050000mm;stroke:black"/>
<polygon points="164.688,93.251 164.688,94.251 163.888,94.251 163.888,97.351 164.688,97.351 164.688,103.151 163.888,103.151 163.888,106.251 164.688,106.251 164.688,107.251 178.688,107.251 178.688,106.251 179.488,106.251 179.488,103.151 178.688,103.151 178.688,97.351 179.488,97.351 179.488,94.251 178.688,94.251 178.688,93.251" style="fill:none;stroke-width:0.050000mm;stroke:black"/>
<polygon points="183.738,93.251 183.738,94.251 182.938,94.251 182.938,97.351 183.738,97.351 183.738,103.151 182.938,103.151 182.938,106.251 183.738,106.251 183.738,107.251 197.738,107.251 197.738,106.251 198.538,106.251 198.538,103.151 197.738,103.151 197.738,97.351 198.538,97.351 198.538,94.251 197.738,94.251 197.738,93.251" style="fill:none;stroke-width:0.050000mm;stroke:black"/>
<polygon points="202.788,93.251 202.788,94.251 201.988,94.251 201.988,97.351 202.788,97.351 202.788,103.151 201.988,103.151 201.988,106.251 202.788,106.251 202.788,107.251 216.788,107.251 216.788,106.251 217.588,106.251 217.588,103.151 216.788,103.151 216.788,97.351 217.588,97.351 217.588,94.251 216.788,94.251 216.788,93.251" style="fill:none;stroke-width:0.050000mm;stroke:black"/>
<polygon points="221.838,93.251 221.838,94.251 221.038,94.251 221.038,97.351 221.838,97.351 221.838,103.151 221.038,103.151 221.038,106.251 221.838,106.251 221.838,107.251 235.838,107.251 235.838,106.251 236.638,106.251 236.638,103.151 235.838,103.151 235.838,97.351 236.638,97.351 236.638,94.251 235.838,94.251 235.838,93.251" style="fill:none;stroke-width:0.050000mm;stroke:black"/>
<polygon points="317.088,93.251 317.088,94.251 316.288,94.251 316.288,97.351 317.088,97.351 317.088,103.151 316.288,103.151 316.288,106.251 317.088,106.251 317.088,107.251 331.088,107.251 331.088,106.251 331.888,106.251 331.888,103.151 331.088,103.151 331.088,97.351 331.888,97.351 331.888,94.251 331.088,94.251 331.088,93.251" style="fill:none;stroke-width:0.050000mm;stroke:black"/>
<polygon points="359.951,93.251 359.951,94.251 359.151,94.251 359.151,97.351 359.951,97.351 359.951,103.151 359.151,103.151 359.151,106.251 359.951,106.251 359.951,107.251 373.951,107.251 373.951,106.251 374.751,106.251 374.751,103.151 373.951,103.151 373.951,97.351 374.751,97.351 374.751,94.251 373.951,94.251 373.951,93.251" style="fill:none;stroke-width:0.050000mm;stroke:black"/>
<polygon points="379.001,93.251 379.001,94.251 378.201,94.251 378.201,97.351 379.001,97.351 379.001,103.151 378.201,103.151 378.201,106.251 379.001,106.251 379.001,107.251 393.001,107.251 393.001,106.251 393.801,106.251 393.801,103.151 393.001,103.151 393.001,97.351 393.801,97.351 393.801,94.251 393.001,94.251 393.001,93.251" style="fill:none;stroke-width:0.050000mm;stroke:black"/>
<polygon points="398.051,93.251 398.051,94.251 397.251,94.251 397.251,97.351 398.051,97.351 398.051,103.151 397.251,103.151 397.251,106.251 398.051,106.251 398.051,107.251 412.051,107.251 412.051,106.251 412.851,106.251 412.851,103.151 412.051,103.151 412.051,97.351 412.851,97.351 412.851,94.251 412.051,94.251 412.051,93.251" style="fill:none;stroke-width:0.050000mm;stroke:black"/>
<polygon points="14.669,74.201 14.669,75.201 13.869,75.201 13.869,78.301 14.669,78.301 14.669,84.101 13.869,84.101 13.869,87.201 14.669,87.201 14.669,88.201 28.669,88.201 28.669,87.201 29.469,87.201 29.469,84.101 28.669,84.101 28.669,78.301 29.469,78.301 29.469,75.201 28.669,75.201 28.669,74.201" style="fill:none;stroke-width:0.050000mm;stroke:black"/>
<polygon points="40.863,74.201 40.863,75.201 40.063,75.201 40.063,78.301 40.863,78.301 40.863,84.101 40.063,84.101 40.063,87.201 40.863,87.201 40.863,88.201 54.863,88.201 54.863,87.201 55.663,87.201 55.663,84.101 54.863,84.101 54.863,78.301 55.663,78.301 55.663,75.201 54.863,75.201 54.863,74.201" style="fill:none;stroke-width:0.050000mm;stroke:black"/>
<polygon points="59.913,74.201 59.913,75.201 59.113,75.201 59.113,78.301 59.913,78.301 59.913,84.101 59.113,84.101 59.113,87.201 59.913,87.201 59.913,88.201 73.913,88.201 73.913,87.201 74.713,87.201 74.713,84.101 73.913,84.101 73.913,78.301 74.713,78.301 74.713,75.201 73.913,75.201 73.913,74.201" style="fill:none;stroke-width:0.050000mm;stroke:black"/>
<polygon points="78.963,74.201 78.963,75.201 78.163,75.201 78.163,78.301 78.963,78.301 78.963,84.101 78.163,84.101 78.163,87.201 78.963,87.201 78.963,88.201 92.963,88.201 92.963,87.201 93.763,87.201 93.763,84.101 92.963,84.101 92.963,78.301 93.763,78.301 93.763,75.201 92.963,75.201 92.963,74.201" style="fill:none;stroke-width:0.050000mm;stroke:black"/>
<polygon points="98.013,74.201 98.013,75.201 97.213,75.201 97.213,78.301 98.013,78.301 98.013,84.101 97.213,84.101 97.213,87.201 98.013,87.201 98.013,88.201 112.013,88.201 112.013,87.201 112.813,87.201 112.813,84.101 112.013,84.101 112.013,78.301 112.813,78.301 112.813,75.201 112.013,75.201 112.013,74.201" style="fill:none;stroke-width:0.050000mm;stroke:black"/>
<polygon points="117.063,74.201 117.063,75.201 116.263,75.201 116.263,78.301 117.063,78.301 117.063,84.101 116.263,84.101 116.263,87.201 117.063,87.201 117.063,88.201 131.063,88.201 131.063,87.201 131.863,87.201 131.863,84.101 131.063,84.101 131.063,78.301 131.863,78.301 131.863,75.201 131.063,75.201 131.063,74.201" style="fill:none;stroke-width:0.050000mm;stroke:black"/>
<polygon points="136.113,74.201 136.113,75.201 135.313,75.201 135.313,78.301 136.113,78.301 136.113,84.101 135.313,84.101 135.313,87.201 136.113,87.201 136.113,88.201 150.113,88.201 150.113,87.201 150.913,87.201 150.913,84.101 150.113,84.101 150.113,78.301 150.913,78.301 150.913,75.201 150.113,75.201 150.113,74.201" style="fill:none;stroke-width:0.050000mm;stroke:black"/>
<polygon points="155.163,74.201 155.163,75.201 154.363,75.201 154.363,78.301 155.163,78.301 155.163,84.101 154.363,84.101 154.363,87.201 155.163,87.201 155.163,88.201 169.163,88.201 169.163,87.201 169.963,87.201 169.963,84.101 169.163,84.101 169.163,78.301 169.963,78.301 169.963,75.201 169.163,75.201 169.163,74.201" style="fill:none;stroke-width:0.050000mm;stroke:black"/>
<polygon points="174.213,74.201 174.213,75.201 173.413,75.201 173.413,78.301 174.213,78.301 174.213,84.101 173.413,84.101 173.413,87.201 174.213,87.201 174.213,88.201 188.213,88.201 188.213,87.201 189.013,87.201 189.013,84.101 188.213,84.101 188.213,78.301 189.013,78.301 189.013,75.201 188.213,75.201 188.213,74.201" style="fill:none;stroke-width:0.050000mm;stroke:black"/>
<polygon points="193.263,74.201 193.263,75.201 192.463,75.201 192.463,78.301 193.263,78.301 193.263,84.101 192.463,84.101 192.463,87.201 193.263,87.201 193.263,88.201 207.263,88.201 207.263,87.201 208.063,87.201 208.063,84.101 207.263,84.101 207.263,78.301 208.063,78.301 208.063,75.201 207.263,75.201 207.263,74.201" style="fill:none;stroke-width:0.050000mm;stroke:black"/>
<polygon points="212.313,74.201 212.313,75.201 211.513,75.201 211.513,78.301 212.313,78.301 212.313,84.101 211.513,84.101 211.513,87.201 212.313,87.201 212.313,88.201 226.313,88.201 226.313,87.201 227.113,87.201 227.113,84.101 226.313,84.101 226.313,78.301 227.113,78.301 227.113,75.201 226.313,75.201 226.313,74.201" style="fill:none;stroke-width:0.050000mm;stroke:black"/>
<polygon points="231.363,74.201 231.363,75.201 230.563,75.201 230.563,78.301 231.363,78.301 231.363,84.101 230.563,84.101 230.563,87.201 231.363,87.201 231.363,88.201 245.363,88.201 245.363,87.201 246.163,87.201 246.163,84.101 245.363,84.101 245.363,78.301 246.163,78.301 246.163,75.201 245.363,75.201 245.363,74.201" style="fill:none;stroke-width:0.050000mm;stroke:black"/>
<polygon points="250.413,74.201 250.413,75.201 249.613,75.201 249.613,78.301 250.413,78.301 250.413,84.101 249.613,84.101 249.613,87.201 250.413,87.201 250.413,88.201 264.413,88.201 264.413,87.201 265.213,87.201 265.213,84.101 264.413,84.101 264.413,78.301 265.213,78.301 265.213,75.201 264.413,75.201 264.413,74.201" style="fill:none;stroke-width:0.050000mm;stroke:black"/>
<polygon points="359.951,74.201 359.951,75.201 359.151,75.201 359.151,78.301 359.951,78.301 359.951,84.101 359.151,84.101 359.151,87.201 359.951,87.201 359.951,88.201 373.951,88.201 373.951,87.201 374.751,87.201 374.751,84.101 373.951,84.101 373.951,78.301 374.751,78.301 374.751,75.201 373.951,75.201 373.951,74.201" style="fill:none;stroke-width:0.050000mm;stroke:black"/>
<polygon points="379.001,74.201 379.001,75.201 378.201,75.201 378.201,78.301 379.001,78.301 379.001,84.101 378.201,84.101 378.201,87.201 379.001,87.201 379.001,88.201 393.001,88.201 393.001,87.201 393.801,87.201 393.801,84.101 393.001,84.101 393.001,78.301 393.801,78.301 393.801,75.201 393.001,75.201 393.001,74.201" style="fill:none;stroke-width:0.050000mm;stroke:black"/>
<polygon points="398.051,74.201 398.051,75.201 397.251,75.201 397.251,78.301 398.051,78.301 398.051,84.101 397.251,84.101 397.251,87.201 398.051,87.201 398.051,88.201 412.051,88.201 412.051,87.201 412.851,87.201 412.851,84.101 412.051,84.101 412.051,78.301 412.851,78.301 412.851,75.201 412.051,75.201 412.051,74.201" style="fill:none;stroke-width:0.050000mm;stroke:black"/>
<polygon points="417.101,74.201 417.101,75.201 416.301,75.201 416.301,78.301 417.101,78.301 417.101,84.101 416.301,84.101 416.301,87.201 417.101,87.201 417.101,88.201 431.101,88.201 431.101,87.201 431.901,87.201 431.901,84.101 431.101,84.101 431.101,78.301 431.901,78.301 431.901,75.201 431.101,75.201 431.101,74.201" style="fill:none;stroke-width:0.050000mm;stroke:black"/>
<polygon points="278.344,55.576 278.344,56.401 272.074,56.401 272.074,58.126 270.874,58.126 270.874,61.426 272.074,61.426 272.074,63.151 276.544,63.151 276.544,64.676 275.944,64.676 275.944,63.876 272.844,63.876 272.844,64.676 271.844,64.676 271.844,78.676 272.844,78.676 272.844,79.476 275.944,79.476 275.944,78.676 276.544,78.676 276.544,80.201 272.074,80.201 272.074,81.926 270.874,81.926 270.874,85.226 272.074,85.226 272.074,86.951 278.344,86.951 278.344,87.776 281.144,87.776 281.144,86.951 284.374,86.951 284.374,80.201 281.144,80.201 281.144,78.676 281.744,78.676 281.744,79.476 284.844,79.476 284.844,78.676 285.844,78.676 285.844,64.676 284.844,64.676 284.844,63.876 281.744,63.876 281.744,64.676 281.144,64.676 281.144,63.151 284.374,63.151 284.374,56.401 281.144,56.401 281.144,55.576" style="fill:none;stroke-width:0.050000mm;stroke:black"/>
<polygon points="12.288,55.151 12.288,56.151 11.488,56.151 11.488,59.251 12.288,59.251 12.288,65.051 11.488,65.051 11.488,68.151 12.288,68.151 12.288,69.151 26.288,69.151 26.288,68.151 27.088,68.151 27.088,65.051 26.288,65.051 26.288,59.251 27.088,59.251 27.088,56.151 26.288,56.151 26.288,55.151" style="fill:none;stroke-width:0.050000mm;stroke:black"/>
<polygon points="36.101,55.151 36.101,56.151 35.301,56.151 35.301,59.251 36.101,59.251 36.101,65.051 35.301,65.051 35.301,68.151 36.101,68.151 36.101,69.151 50.101,69.151 50.101,68.151 50.901,68.151 50.901,65.051 50.101,65.051 50.101,59.251 50.901,59.251 50.901,56.151 50.101,56.151 50.101,55.151" style="fill:none;stroke-width:0.050000mm;stroke:black"/>
<polygon points="55.151,55.151 55.151,56.151 54.351,56.151 54.351,59.251 55.151,59.251 55.151,65.051 54.351,65.051 54.351,68.151 55.151,68.151 55.151,69.151 69.151,69.151 69.151,68.151 69.951,68.151 69.951,65.051 69.151,65.051 69.151,59.251 69.951,59.251 69.951,56.151 69.151,56.151 69.151,55.151" style="fill:none;stroke-width:0.050000mm;stroke:black"/>
<polygon points="74.201,55.151 74.201,56.151 73.401,56.151 73.401,59.251 74.201,59.251 74.201,65.051 73.401,65.051 73.401,68.151 74.201,68.151 74.201,69.151 88.201,69.151 88.201,68.151 89.001,68.151 89.001,65.051 88.201,65.051 88.201,59.251 89.001,59.251 89.001,56.151 88.201,56.151 88.201,55.151" style="fill:none;stroke-width:0.050000mm;stroke:black"/>
<polygon points="93.251,55.151 93.251,56.151 92.451,56.151 92.451,59.251 93.251,59.251 93.251,65.051 92.451,65.051 92.451,68.151 93.251,68.151 93.251,69.151 107.251,69.151 107.251,68.151 108.051,68.151 108.051,65.051 107.251,65.051 107.251,59.251 108.051,59.251 108.051,56.151 107.251,56.151 107.251,55.151" style="fill:none;stroke-width:0.050000mm;stroke:black"/>
<polygon points="112.301,55.151 112.301,56.151 111.501,56.151 111.501,59.251 112.301,59.251 112.301,65.051 111.501,65.051 111.501,68.151 112.301,68.151 112.301,69.151 126.301,69.151 126.301,68.151 127.101,68.151 127.101,65.051 126.301,65.051 126.301,59.251 127.101,59.251 127.101,56.151 126.301,56.151 126.301,55.151" style="fill:none;stroke-width:0.050000mm;stroke:black"/>
<polygon points="131.351,55.151 131.351,56.151 130.550,56.151 130.550,59.251 131.351,59.251 131.351,65.051 130.550,65.051 130.550,68.151 131.351,68.151 131.351,69.151 145.351,69.151 145.351,68.151 146.151,68.151 146.151,65.051 145.351,65.051 145.351,59.251 146.151,59.251 146.151,56.151 145.351,56.151 145.351,55.151" style="fill:none;stroke-width:0.050000mm;stroke:black"/>
<polygon points="150.401,55.151 150.401,56.151 149.601,56.151 149.601,59.251 150.401,59.251 150.401,65.051 149.601,65.051 149.601,68.151 150.401,68.151 150.401,69.151 164.401,69.151 164.401,68.151 165.201,68.151 165.201,65.051 164.401,65.051 164.401,59.251 165.201,59.251 165.201,56.151 164.401,56.151 164.401,55.151" style="fill:none;stroke-width:0.050000mm;stroke:black"/>
<polygon points="169.451,55.151 169.451,56.151 168.651,56.151 168.651,59.251 169.451,59.251 169.451,65.051 168.651,65.051 168.651,68.151 169.451,68.151 169.451,69.151 183.451,69.151 183.451,68.151 184.251,68.151 184.251,65.051 183.451,65.051 183.451,59.251 184.251,59.251 184.251,56.151 183.451,56.151 183.451,55.151" style="fill:none;stroke-width:0.050000mm;stroke:black"/>
<polygon points="188.501,55.151 188.501,56.151 187.701,56.151 187.701,59.251 188.501,59.251 188.501,65.051 187.701,65.051 187.701,68.151 188.501,68.151 188.501,69.151 202.501,69.151 202.501,68.151 203.301,68.151 203.301,65.051 202.501,65.051 202.501,59.251 203.301,59.251 203.301,56.151 202.501,56.151 202.501,55.151" style="fill:none;stroke-width:0.050000mm;stroke:black"/>
<polygon points="207.551,55.151 207.551,56.151 206.751,56.151 206.751,59.251 207.551,59.251 207.551,65.051 206.751,65.051 206.751,68.151 207.551,68.151 207.551,69.151 221.551,69.151 221.551,68.151 222.351,68.151 222.351,65.051 221.551,65.051 221.551,59.251 222.351,59.251 222.351,56.151 221.551,56.151 221.551,55.151" style="fill:none;stroke-width:0.050000mm;stroke:black"/>
<polygon points="226.601,55.151 226.601,56.151 225.801,56.151 225.801,59.251 226.601,59.251 226.601,65.051 225.801,65.051 225.801,68.151 226.601,68.151 226.601,69.151 240.601,69.151 240.601,68.151 241.401,68.151 241.401,65.051 240.601,65.051 240.601,59.251 241.401,59.251 241.401,56.151 240.601,56.151 240.601,55.151" style="fill:none;stroke-width:0.050000mm;stroke:black"/>
<polygon points="245.651,55.151 245.651,56.151 244.851,56.151 244.851,59.251 245.651,59.251 245.651,65.051 244.851,65.051 244.851,68.151 245.651,68.151 245.651,69.151 259.650,69.151 259.650,68.151 260.451,68.151 260.451,65.051 259.650,65.051 259.650,59.251 260.451,59.251 260.451,56.151 259.650,56.151 259.650,55.151" style="fill:none;stroke-width:0.050000mm;stroke:black"/>
<polygon points="298.038,55.151 298.038,56.151 297.238,56.151 297.238,59.251 298.038,59.251 298.038,65.051 297.238,65.051 297.238,68.151 298.038,68.151 298.038,69.151 312.038,69.151 312.038,68.151 312.838,68.151 312.838,65.051 312.038,65.051 312.038,59.251 312.838,59.251 312.838,56.151 312.038,56.151 312.038,55.151" style="fill:none;stroke-width:0.050000mm;stroke:black"/>
<polygon points="317.088,55.151 317.088,56.151 316.288,56.151 316.288,59.251 317.088,59.251 317.088,65.051 316.288,65.051 316.288,68.151 317.088,68.151 317.088,69.151 331.088,69.151 331.088,68.151 331.888,68.151 331.888,65.051 331.088,65.051 331.088,59.251 331.888,59.251 331.888,56.151 331.088,56.151 331.088,55.151" style="fill:none;stroke-width:0.050000mm;stroke:black"/>
<polygon points="336.138,55.151 336.138,56.151 335.338,56.151 335.338,59.251 336.138,59.251 336.138,65.051 335.338,65.051 335.338,68.151 336.138,68.151 336.138,69.151 350.138,69.151 350.138,68.151 350.938,68.151 350.938,65.051 350.138,65.051 350.138,59.251 350.938,59.251 350.938,56.151 350.138,56.151 350.138,55.151" style="fill:none;stroke-width:0.050000mm;stroke:black"/>
<polygon points="359.951,55.151 359.951,56.151 359.151,56.151 359.151,59.251 359.951,59.251 359.951,65.051 359.151,65.051 359.151,68.151 359.951,68.151 359.951,69.151 373.951,69.151 373.951,68.151 374.751,68.151 374.751,65.051 373.951,65.051 373.951,59.251 374.751,59.251 374.751,56.151 373.951,56.151 373.951,55.151" style="fill:none;stroke-width:0.050000mm;stroke:black"/>
<polygon points="379.001,55.151 379.001,56.151 378.201,56.151 378.201,59.251 379.001,59.251 379.001,65.051 378.201,65.051 378.201,68.151 379.001,68.151 379.001,69.151 393.001,69.151 393.001,68.151 393.801,68.151 393.801,65.051 393.001,65.051 393.001,59.251 393.801,59.251 393.801,56.151 393.001,56.151 393.001,55.151" style="fill:none;stroke-width:0.050000mm;stroke:black"/>
<polygon points="398.051,55.151 398.051,56.151 397.251,56.151 397.251,59.251 398.051,59.251 398.051,65.051 397.251,65.051 397.251,68.151 398.051,68.151 398.051,69.151 412.051,69.151 412.051,68.151 412.851,68.151 412.851,65.051 412.051,65.051 412.051,59.251 412.851,59.251 412.851,56.151 412.051,56.151 412.051,55.151" style="fill:none;stroke-width:0.050000mm;stroke:black"/>
<polygon points="417.101,55.151 417.101,56.151 416.301,56.151 416.301,59.251 417.101,59.251 417.101,65.051 416.301,65.051 416.301,68.151 417.101,68.151 417.101,69.151 431.101,69.151 431.101,68.151 431.901,68.151 431.901,65.051 431.101,65.051 431.101,59.251 431.901,59.251 431.901,56.151 431.101,56.151 431.101,55.151" style="fill:none;stroke-width:0.050000mm;stroke:black"/>
<polygon points="264.701,36.101 264.701,37.101 263.901,37.101 263.901,40.201 264.701,40.201 264.701,40.801 263.176,40.801 263.176,37.571 256.426,37.571 256.426,40.801 255.601,40.801 255.601,43.601 256.426,43.601 256.426,49.871 258.150,49.871 258.150,51.071 261.451,51.071 261.451,49.871 263.176,49.871 263.176,45.401 264.701,45.401 264.701,46.001 263.901,46.001 263.901,49.101 264.701,49.101 264.701,50.101 278.701,50.101 278.701,49.101 279.501,49.101 279.501,46.001 278.701,46.001 278.701,45.401 280.226,45.401 280.226,49.871 281.951,49.871 281.951,51.071 285.251,51.071 285.251,49.871 286.976,49.871 286.976,43.601 287.801,43.601 287.801,40.801 286.976,40.801 286.976,37.571 280.226,37.571 280.226,40.801 278.701,40.801 278.701,40.201 279.501,40.201 279.501,37.101 278.701,37.101 278.701,36.101" style="fill:none;stroke-width:0.050000mm;stroke:black"/>
<polygon points="7.526,36.101 7.526,37.101 6.726,37.101 6.726,40.201 7.526,40.201 7.526,46.001 6.726,46.001 6.726,49.101 7.526,49.101 7.526,50.101 21.526,50.101 21.526,49.101 22.326,49.101 22.326,46.001 21.526,46.001 21.526,40.201 22.326,40.201 22.326,37.101 21.526,37.101 21.526,36.101" style="fill:none;stroke-width:0.050000mm;stroke:black"/>
<polygon points="26.576,36.101 26.576,37.101 25.776,37.101 25.776,40.201 26.576,40.201 26.576,46.001 25.776,46.001 25.776,49.101 26.576,49.101 26.576,50.101 40.576,50.101 40.576,49.101 41.376,49.101 41.376,46.001 40.576,46.001 40.576,40.201 41.376,40.201 41.376,37.101 40.576,37.101 40.576,36.101" style="fill:none;stroke-width:0.050000mm;stroke:black"/>
<polygon points="45.626,36.101 45.626,37.101 44.826,37.101 44.826,40.201 45.626,40.201 45.626,46.001 44.826,46.001 44.826,49.101 45.626,49.101 45.626,50.101 59.626,50.101 59.626,49.101 60.426,49.101 60.426,46.001 59.626,46.001 59.626,40.201 60.426,40.201 60.426,37.101 59.626,37.101 59.626,36.101" style="fill:none;stroke-width:0.050000mm;stroke:black"/>
<polygon points="64.676,36.101 64.676,37.101 63.876,37.101 63.876,40.201 64.676,40.201 64.676,46.001 63.876,46.001 63.876,49.101 64.676,49.101 64.676,50.101 78.676,50.101 78.676,49.101 79.476,49.101 79.476,46.001 78.676,46.001 78.676,40.201 79.476,40.201 79.476,37.101 78.676,37.101 78.676,36.101" style="fill:none;stroke-width:0.050000mm;stroke:black"/>
<polygon points="83.726,36.101 83.726,37.101 82.926,37.101 82.926,40.201 83.726,40.201 83.726,46.001 82.926,46.001 82.926,49.101 83.726,49.101 83.726,50.101 97.726,50.101 97.726,49.101 98.525,49.101 98.525,46.001 97.726,46.001 97.726,40.201 98.525,40.201 98.525,37.101 97.726,37.101 97.726,36.101" style="fill:none;stroke-width:0.050000mm;stroke:black"/>
<polygon points="102.775,36.101 102.775,37.101 101.976,37.101 101.976,40.201 102.775,40.201 102.775,46.001 101.976,46.001 101.976,49.101 102.775,49.101 102.775,50.101 116.775,50.101 116.775,49.101 117.575,49.101 117.575,46.001 116.775,46.001 116.775,40.201 117.575,40.201 117.575,37.101 116.775,37.101 116.775,36.101" style="fill:none;stroke-width:0.050000mm;stroke:black"/>
<polygon points="121.825,36.101 121.825,37.101 121.025,37.101 121.025,40.201 121.825,40.201 121.825,46.001 121.025,46.001 121.025,49.101 121.825,49.101 121.825,50.101 135.826,50.101 135.826,49.101 136.626,49.101 136.626,46.001 135.826,46.001 135.826,40.201 136.626,40.201 136.626,37.101 135.826,37.101 135.826,36.101" style="fill:none;stroke-width:0.050000mm;stroke:black"/>
<polygon points="140.876,36.101 140.876,37.101 140.076,37.101 140.076,40.201 140.876,40.201 140.876,46.001 140.076,46.001 140.076,49.101 140.876,49.101 140.876,50.101 154.876,50.101 154.876,49.101 155.676,49.101 155.676,46.001 154.876,46.001 154.876,40.201 155.676,40.201 155.676,37.101 154.876,37.101 154.876,36.101" style="fill:none;stroke-width:0.050000mm;stroke:black"/>
<polygon points="159.926,36.101 159.926,37.101 159.126,37.101 159.126,40.201 159.926,40.201 159.926,46.001 159.126,46.001 159.126,49.101 159.926,49.101 159.926,50.101 173.926,50.101 173.926,49.101 174.726,49.101 174.726,46.001 173.926,46.001 173.926,40.201 174.726,40.201 174.726,37.101 173.926,37.101 173.926,36.101" style="fill:none;stroke-width:0.050000mm;stroke:black"/>
<polygon points="178.976,36.101 178.976,37.101 178.176,37.101 178.176,40.201 178.976,40.201 178.976,46.001 178.176,46.001 178.176,49.101 178.976,49.101 178.976,50.101 192.976,50.101 192.976,49.101 193.776,49.101 193.776,46.001 192.976,46.001 192.976,40.201 193.776,40.201 193.776,37.101 192.976,37.101 192.976,36.101" style="fill:none;stroke-width:0.050000mm;stroke:black"/>
<polygon points="198.026,36.101 198.026,37.101 197.226,37.101 197.226,40.201 198.026,40.201 198.026,46.001 197.226,46.001 197.226,49.101 198.026,49.101 198.026,50.101 212.026,50.101 212.026,49.101 212.826,49.101 212.826,46.001 212.026,46.001 212.026,40.201 212.826,40.201 212.826,37.101 212.026,37.101 212.026,36.101" style="fill:none;stroke-width:0.050000mm;stroke:black"/>
<polygon points="217.076,36.101 217.076,37.101 216.276,37.101 216.276,40.201 217.076,40.201 217.076,46.001 216.276,46.001 216.276,49.101 217.076,49.101 217.076,50.101 231.076,50.101 231.076,49.101 231.876,49.101 231.876,46.001 231.076,46.001 231.076,40.201 231.876,40.201 231.876,37.101 231.076,37.101 231.076,36.101" style="fill:none;stroke-width:0.050000mm;stroke:black"/>
<polygon points="236.126,36.101 236.126,37.101 235.326,37.101 235.326,40.201 236.126,40.201 236.126,46.001 235.326,46.001 235.326,49.101 236.126,49.101 236.126,50.101 250.126,50.101 250.126,49.101 250.926,49.101 250.926,46.001 250.126,46.001 250.126,40.201 250.926,40.201 250.926,37.101 250.126,37.101 250.126,36.101" style="fill:none;stroke-width:0.050000mm;stroke:black"/>
<polygon points="298.038,36.101 298.038,37.101 297.238,37.101 297.238,40.201 298.038,40.201 298.038,46.001 297.238,46.001 297.238,49.101 298.038,49.101 298.038,50.101 312.038,50.101 312.038,49.101 312.838,49.101 312.838,46.001 312.038,46.001 312.038,40.201 312.838,40.201 312.838,37.101 312.038,37.101 312.038,36.101" style="fill:none;stroke-width:0.050000mm;stroke:black"/>
<polygon points="317.088,36.101 317.088,37.101 316.288,37.101 316.288,40.201 317.088,40.201 317.088,46.001 316.288,46.001 316.288,49.101 317.088,49.101 317.088,50.101 331.088,50.101 331.088,49.101 331.888,49.101 331.888,46.001 331.088,46.001 331.088,40.201 331.888,40.201 331.888,37.101 331.088,37.101 331.088,36.101" style="fill:none;stroke-width:0.050000mm;stroke:black"/>
<polygon points="336.138,36.101 336.138,37.101 335.338,37.101 335.338,40.201 336.138,40.201 336.138,46.001 335.338,46.001 335.338,49.101 336.138,49.101 336.138,50.101 350.138,50.101 350.138,49.101 350.938,49.101 350.938,46.001 350.138,46.001 350.138,40.201 350.938,40.201 350.938,37.101 350.138,37.101 350.138,36.101" style="fill:none;stroke-width:0.050000mm;stroke:black"/>
<polygon points="359.951,36.101 359.951,37.101 359.151,37.101 359.151,40.201 359.951,40.201 359.951,46.001 359.151,46.001 359.151,49.101 359.951,49.101 359.951,50.101 373.951,50.101 373.951,49.101 374.751,49.101 374.751,46.001 373.951,46.001 373.951,40.201 374.751,40.201 374.751,37.101 373.951,37.101 373.951,36.101" style="fill:none;stroke-width:0.050000mm;stroke:black"/>
<polygon points="379.001,36.101 379.001,37.101 378.201,37.101 378.201,40.201 379.001,40.201 379.001,46.001 378.201,46.001 378.201,49.101 379.001,49.101 379.001,50.101 393.001,50.101 393.001,49.101 393.801,49.101 393.801,46.001 393.001,46.001 393.001,40.201 393.801,40.201 393.801,37.101 393.001,37.101 393.001,36.101" style="fill:none;stroke-width:0.050000mm;stroke:black"/>
<polygon points="398.051,36.101 398.051,37.101 397.251,37.101 397.251,40.201 398.051,40.201 398.051,46.001 397.251,46.001 397.251,49.101 398.051,49.101 398.051,50.101 412.051,50.101 412.051,49.101 412.851,49.101 412.851,46.001 412.051,46.001 412.051,40.201 412.851,40.201 412.851,37.101 412.051,37.101 412.051,36.101" style="fill:none;stroke-width:0.050000mm;stroke:black"/>
<polygon points="417.101,36.101 417.101,37.101 416.301,37.101 416.301,40.201 417.101,40.201 417.101,46.001 416.301,46.001 416.301,49.101 417.101,49.101 417.101,50.101 431.101,50.101 431.101,49.101 431.901,49.101 431.901,46.001 431.101,46.001 431.101,40.201 431.901,40.201 431.901,37.101 431.101,37.101 431.101,36.101" style="fill:none;stroke-width:0.050000mm;stroke:black"/>
<polygon points="7.526,7.526 7.526,8.526 6.726,8.526 6.726,11.626 7.526,11.626 7.526,17.426 6.726,17.426 6.726,20.526 7.526,20.526 7.526,21.526 21.526,21.526 21.526,20.526 22.326,20.526 22.326,17.426 21.526,17.426 21.526,11.626 22.326,11.626 22.326,8.526 21.526,8.526 21.526,7.526" style="fill:none;stroke-width:0.050000mm;stroke:black"/>
<polygon points="45.626,7.526 45.626,8.526 44.826,8.526 44.826,11.626 45.626,11.626 45.626,17.426 44.826,17.426 44.826,20.526 45.626,20.526 45.626,21.526 59.626,21.526 59.626,20.526 60.426,20.526 60.426,17.426 59.626,17.426 59.626,11.626 60.426,11.626 60.426,8.526 59.626,8.526 59.626,7.526" style="fill:none;stroke-width:0.050000mm;stroke:black"/>
<polygon points="64.676,7.526 64.676,8.526 63.876,8.526 63.876,11.626 64.676,11.626 64.676,17.426 63.876,17.426 63.876,20.526 64.676,20.526 64.676,21.526 78.676,21.526 78.676,20.526 79.476,20.526 79.476,17.426 78.676,17.426 78.676,11.626 79.476,11.626 79.476,8.526 78.676,8.526 78.676,7.526" style="fill:none;stroke-width:0.050000mm;stroke:black"/>
<polygon points="83.726,7.526 83.726,8.526 82.926,8.526 82.926,11.626 83.726,11.626 83.726,17.426 82.926,17.426 82.926,20.526 83.726,20.526 83.726,21.526 97.726,21.526 97.726,20.526 98.525,20.526 98.525,17.426 97.726,17.426 97.726,11.626 98.525,11.626 98.525,8.526 97.726,8.526 97.726,7.526" style="fill:none;stroke-width:0.050000mm;stroke:black"/>
<polygon points="102.775,7.526 102.775,8.526 101.976,8.526 101.976,11.626 102.775,11.626 102.775,17.426 101.976,17.426 101.976,20.526 102.775,20.526 102.775,21.526 116.775,21.526 116.775,20.526 117.575,20.526 117.575,17.426 116.775,17.426 116.775,11.626 117.575,11.626 117.575,8.526 116.775,8.526 116.775,7.526" style="fill:none;stroke-width:0.050000mm;stroke:black"/>
<polygon points="131.351,7.526 131.351,8.526 130.550,8.526 130.550,11.626 131.351,11.626 131.351,17.426 130.550,17.426 130.550,20.526 131.351,20.526 131.351,21.526 145.351,21.526 145.351,20.526 146.151,20.526 146.151,17.426 145.351,17.426 145.351,11.626 146.151,11.626 146.151,8.526 145.351,8.526 145.351,7.526" style="fill:none;stroke-width:0.050000mm;stroke:black"/>
<polygon points="150.401,7.526 150.401,8.526 149.601,8.526 149.601,11.626 150.401,11.626 150.401,17.426 149.601,17.426 149.601,20.526 150.401,20.526 150.401,21.526 164.401,21.526 164.401,20.526 165.201,20.526 165.201,17.426 164.401,17.426 164.401,11.626 165.201,11.626 165.201,8.526 164.401,8.526 164.401,7.526" style="fill:none;stroke-width:0.050000mm;stroke:black"/>
<polygon points="169.451,7.526 169.451,8.526 168.651,8.526 168.651,11.626 169.451,11.626 169.451,17.426 168.651,17.426 168.651,20.526 169.451,20.526 169.451,21.526 183.451,21.526 183.451,20.526 184.251,20.526 184.251,17.426 183.451,17.426 183.451,11.626 184.251,11.626 184.251,8.526 183.451,8.526 183.451,7.526" style="fill:none;stroke-width:0.050000mm;stroke:black"/>
<polygon points="188.501,7.526 188.501,8.526 187.701,8.526 187.701,11.626 188.501,11.626 188.501,17.426 187.701,17.426 187.701,20.526 188.501,20.526 188.501,21.526 202.501,21.526 202.501,20.526 203.301,20.526 203.301,17.426 202.501,17.426 202.501,11.626 203.301,11.626 203.301,8.526 202.501,8.526 202.501,7.526" style="fill:none;stroke-width:0.050000mm;stroke:black"/>
<polygon points="217.076,7.526 217.076,8.526 216.276,8.526 216.276,11.626 217.076,11.626 217.076,17.426 216.276,17.426 216.276,20.526 217.076,20.526 217.076,21.526 231.076,21.526 231.076,20.526 231.876,20.526 231.876,17.426 231.076,17.426 231.076,11.626 231.876,11.626 231.876,8.526 231.076,8.526 231.076,7.526" style="fill:none;stroke-width:0.050000mm;stroke:black"/>
<polygon points="236.126,7.526 236.126,8.526 235.326,8.526 235.326,11.626 236.126,11.626 236.126,17.426 235.326,17.426 235.326,20.526 236.126,20.526 236.126,21.526 250.126,21.526 250.126,20.526 250.926,20.526 250.926,17.426 250.126,17.426 250.126,11.626 250.926,11.626 250.926,8.526 250.126,8.526 250.126,7.526" style="fill:none;stroke-width:0.050000mm;stroke:black"/>
<polygon points="255.176,7.526 255.176,8.526 254.376,8.526 254.376,11.626 255.176,11.626 255.176,17.426 254.376,17.426 254.376,20.526 255.176,20.526 255.176,21.526 269.176,21.526 269.176,20.526 269.976,20.526 269.976,17.426 269.176,17.426 269.176,11.626 269.976,11.626 269.976,8.526 269.176,8.526 269.176,7.526" style="fill:none;stroke-width:0.050000mm;stroke:black"/>
<polygon points="274.226,7.526 274.226,8.526 273.426,8.526 273.426,11.626 274.226,11.626 274.226,17.426 273.426,17.426 273.426,20.526 274.226,20.526 274.226,21.526 288.226,21.526 288.226,20.526 289.026,20.526 289.026,17.426 288.226,17.426 288.226,11.626 289.026,11.626 289.026,8.526 288.226,8.526 288.226,7.526" style="fill:none;stroke-width:0.050000mm;stroke:black"/>
<polygon points="298.038,7.526 298.038,8.526 297.238,8.526 297.238,11.626 298.038,11.626 298.038,17.426 297.238,17.426 297.238,20.526 298.038,20.526 298.038,21.526 312.038,21.526 312.038,20.526 312.838,20.526 312.838,17.426 312.038,17.426 312.038,11.626 312.838,11.626 312.838,8.526 312.038,8.526 312.038,7.526" style="fill:none;stroke-width:0.050000mm;stroke:black"/>
<polygon points="317.088,7.526 317.088,8.526 316.288,8.526 316.288,11.626 317.088,11.626 317.088,17.426 316.288,17.426 316.288,20.526 317.088,20.526 317.088,21.526 331.088,21.526 331.088,20.526 331.888,20.526 331.888,17.426 331.088,17.426 331.088,11.626 331.888,11.626 331.888,8.526 331.088,8.526 331.088,7.526" style="fill:none;stroke-width:0.050000mm;stroke:black"/>
<polygon points="336.138,7.526 336.138,8.526 335.338,8.526 335.338,11.626 336.138,11.626 336.138,17.426 335.338,17.426 335.338,20.526 336.138,20.526 336.138,21.526 350.138,21.526 350.138,20.526 350.938,20.526 350.938,17.426 350.138,17.426 350.138,11.626 350.938,11.626 350.938,8.526 350.138,8.526 350.138,7.526" style="fill:none;stroke-width:0.050000mm;stroke:black"/>
</svg>
