  0
SECTION
  2
HEADER
  9
$ACADVER
  1
AC1009
  9
$EXTMIN
 10
0.0
 20
0.0
 30
0.0
  9
$EXTMAX
 10
1000.0
 20
1000.0
 30
0.0
  9
$FILLMODE
 70
 0
  9
$SPLFRAME
 70
 1
  0
ENDSEC
  0
SECTION
  2
TABLES
  0
TABLE
  2
LAYER
 70
1
  0
LAYER
  2
0
 70
     0
 62
     7
  6
CONTINUOUS
  0
ENDTAB
  0
ENDSEC
  0
SECTION
  2
ENTITIES
  0
LINE
  8
0
 62
     0
 10
0.0937066
 20
153.906
 30
0.0
 11
458.72
 21
153.906
 31
0.0
  0
LINE
  8
0
 62
     0
 10
458.72
 20
153.906
 30
0.0
 11
458.72
 21
0.0799264
 31
0.0
  0
LINE
  8
0
 62
     0
 10
458.72
 20
0.0799264
 30
0.0
 11
0.0937066
 21
0.0799264
 31
0.0
  0
LINE
  8
0
 62
     0
 10
0.0937066
 20
0.0799264
 30
0.0
 11
0.0937066
 21
153.906
 31
0.0
  0
LINE
  8
0
 62
     0
 10
453.757
 20
6.00685
 30
0.0
 11
453.337
 21
5.79466
 31
0.0
  0
LINE
  8
0
 62
     0
 10
453.337
 20
5.79466
 30
0.0
 11
453.005
 21
5.46255
 31
0.0
  0
LINE
  8
0
 62
     0
 10
453.005
 20
5.46255
 30
0.0
 11
452.794
 21
5.04363
 31
0.0
  0
LINE
  8
0
 62
     0
 10
452.794
 20
5.04363
 30
0.0
 11
452.72
 21
4.58061
 31
0.0
  0
LINE
  8
0
 62
     0
 10
452.72
 20
4.58061
 30
0.0
 11
452.794
 21
4.11759
 31
0.0
  0
LINE
  8
0
 62
     0
 10
452.794
 20
4.11759
 30
0.0
 11
453.005
 21
3.69866
 31
0.0
  0
LINE
  8
0
 62
     0
 10
453.005
 20
3.69866
 30
0.0
 11
453.337
 21
3.36655
 31
0.0
  0
LINE
  8
0
 62
     0
 10
453.337
 20
3.36655
 30
0.0
 11
453.757
 21
3.15433
 31
0.0
  0
LINE
  8
0
 62
     0
 10
453.757
 20
3.15433
 30
0.0
 11
454.219
 21
3.07992
 31
0.0
  0
LINE
  8
0
 62
     0
 10
454.219
 20
3.07992
 30
0.0
 11
454.681
 21
3.15433
 31
0.0
  0
LINE
  8
0
 62
     0
 10
454.681
 20
3.15433
 30
0.0
 11
455.101
 21
3.36655
 31
0.0
  0
LINE
  8
0
 62
     0
 10
455.101
 20
3.36655
 30
0.0
 11
455.433
 21
3.69866
 31
0.0
  0
LINE
  8
0
 62
     0
 10
455.433
 20
3.69866
 30
0.0
 11
455.644
 21
4.11759
 31
0.0
  0
LINE
  8
0
 62
     0
 10
455.644
 20
4.11759
 30
0.0
 11
455.718
 21
4.58061
 31
0.0
  0
LINE
  8
0
 62
     0
 10
455.718
 20
4.58061
 30
0.0
 11
455.644
 21
5.04363
 31
0.0
  0
LINE
  8
0
 62
     0
 10
455.644
 20
5.04363
 30
0.0
 11
455.433
 21
5.46255
 31
0.0
  0
LINE
  8
0
 62
     0
 10
455.433
 20
5.46255
 30
0.0
 11
455.101
 21
5.79466
 31
0.0
  0
LINE
  8
0
 62
     0
 10
455.101
 20
5.79466
 30
0.0
 11
454.681
 21
6.00685
 31
0.0
  0
LINE
  8
0
 62
     0
 10
454.681
 20
6.00685
 30
0.0
 11
454.219
 21
6.07991
 31
0.0
  0
LINE
  8
0
 62
     0
 10
454.219
 20
6.07991
 30
0.0
 11
453.757
 21
6.00685
 31
0.0
  0
LINE
  8
0
 62
     0
 10
303.881
 20
6.00685
 30
0.0
 11
303.462
 21
5.79466
 31
0.0
  0
LINE
  8
0
 62
     0
 10
303.462
 20
5.79466
 30
0.0
 11
303.131
 21
5.46255
 31
0.0
  0
LINE
  8
0
 62
     0
 10
303.131
 20
5.46255
 30
0.0
 11
302.918
 21
5.04363
 31
0.0
  0
LINE
  8
0
 62
     0
 10
302.918
 20
5.04363
 30
0.0
 11
302.843
 21
4.58061
 31
0.0
  0
LINE
  8
0
 62
     0
 10
302.843
 20
4.58061
 30
0.0
 11
302.918
 21
4.11759
 31
0.0
  0
LINE
  8
0
 62
     0
 10
302.918
 20
4.11759
 30
0.0
 11
303.131
 21
3.69866
 31
0.0
  0
LINE
  8
0
 62
     0
 10
303.131
 20
3.69866
 30
0.0
 11
303.462
 21
3.36655
 31
0.0
  0
LINE
  8
0
 62
     0
 10
303.462
 20
3.36655
 30
0.0
 11
303.881
 21
3.15433
 31
0.0
  0
LINE
  8
0
 62
     0
 10
303.881
 20
3.15433
 30
0.0
 11
304.344
 21
3.07992
 31
0.0
  0
LINE
  8
0
 62
     0
 10
304.344
 20
3.07992
 30
0.0
 11
304.808
 21
3.15433
 31
0.0
  0
LINE
  8
0
 62
     0
 10
304.808
 20
3.15433
 30
0.0
 11
305.226
 21
3.36655
 31
0.0
  0
LINE
  8
0
 62
     0
 10
305.226
 20
3.36655
 30
0.0
 11
305.558
 21
3.69866
 31
0.0
  0
LINE
  8
0
 62
     0
 10
305.558
 20
3.69866
 30
0.0
 11
305.77
 21
4.11759
 31
0.0
  0
LINE
  8
0
 62
     0
 10
305.77
 20
4.11759
 30
0.0
 11
305.843
 21
4.58061
 31
0.0
  0
LINE
  8
0
 62
     0
 10
305.843
 20
4.58061
 30
0.0
 11
305.77
 21
5.04363
 31
0.0
  0
LINE
  8
0
 62
     0
 10
305.77
 20
5.04363
 30
0.0
 11
305.558
 21
5.46255
 31
0.0
  0
LINE
  8
0
 62
     0
 10
305.558
 20
5.46255
 30
0.0
 11
305.226
 21
5.79466
 31
0.0
  0
LINE
  8
0
 62
     0
 10
305.226
 20
5.79466
 30
0.0
 11
304.808
 21
6.00685
 31
0.0
  0
LINE
  8
0
 62
     0
 10
304.808
 20
6.00685
 30
0.0
 11
304.344
 21
6.07991
 31
0.0
  0
LINE
  8
0
 62
     0
 10
304.344
 20
6.07991
 30
0.0
 11
303.881
 21
6.00685
 31
0.0
  0
LINE
  8
0
 62
     0
 10
154.005
 20
6.00685
 30
0.0
 11
153.586
 21
5.79466
 31
0.0
  0
LINE
  8
0
 62
     0
 10
153.586
 20
5.79466
 30
0.0
 11
153.254
 21
5.46255
 31
0.0
  0
LINE
  8
0
 62
     0
 10
153.254
 20
5.46255
 30
0.0
 11
153.042
 21
5.04363
 31
0.0
  0
LINE
  8
0
 62
     0
 10
153.042
 20
5.04363
 30
0.0
 11
152.969
 21
4.58061
 31
0.0
  0
LINE
  8
0
 62
     0
 10
152.969
 20
4.58061
 30
0.0
 11
153.042
 21
4.11759
 31
0.0
  0
LINE
  8
0
 62
     0
 10
153.042
 20
4.11759
 30
0.0
 11
153.254
 21
3.69866
 31
0.0
  0
LINE
  8
0
 62
     0
 10
153.254
 20
3.69866
 30
0.0
 11
153.586
 21
3.36655
 31
0.0
  0
LINE
  8
0
 62
     0
 10
153.586
 20
3.36655
 30
0.0
 11
154.005
 21
3.15433
 31
0.0
  0
LINE
  8
0
 62
     0
 10
154.005
 20
3.15433
 30
0.0
 11
154.468
 21
3.07992
 31
0.0
  0
LINE
  8
0
 62
     0
 10
154.468
 20
3.07992
 30
0.0
 11
154.932
 21
3.15433
 31
0.0
  0
LINE
  8
0
 62
     0
 10
154.932
 20
3.15433
 30
0.0
 11
155.35
 21
3.36655
 31
0.0
  0
LINE
  8
0
 62
     0
 10
155.35
 20
3.36655
 30
0.0
 11
155.681
 21
3.69866
 31
0.0
  0
LINE
  8
0
 62
     0
 10
155.681
 20
3.69866
 30
0.0
 11
155.895
 21
4.11759
 31
0.0
  0
LINE
  8
0
 62
     0
 10
155.895
 20
4.11759
 30
0.0
 11
155.969
 21
4.58061
 31
0.0
  0
LINE
  8
0
 62
     0
 10
155.969
 20
4.58061
 30
0.0
 11
155.895
 21
5.04363
 31
0.0
  0
LINE
  8
0
 62
     0
 10
155.895
 20
5.04363
 30
0.0
 11
155.681
 21
5.46255
 31
0.0
  0
LINE
  8
0
 62
     0
 10
155.681
 20
5.46255
 30
0.0
 11
155.35
 21
5.79466
 31
0.0
  0
LINE
  8
0
 62
     0
 10
155.35
 20
5.79466
 30
0.0
 11
154.932
 21
6.00685
 31
0.0
  0
LINE
  8
0
 62
     0
 10
154.932
 20
6.00685
 30
0.0
 11
154.468
 21
6.07991
 31
0.0
  0
LINE
  8
0
 62
     0
 10
154.468
 20
6.07991
 30
0.0
 11
154.005
 21
6.00685
 31
0.0
  0
LINE
  8
0
 62
     0
 10
4.12997
 20
6.00685
 30
0.0
 11
3.71242
 21
5.79466
 31
0.0
  0
LINE
  8
0
 62
     0
 10
3.71242
 20
5.79466
 30
0.0
 11
3.38033
 21
5.46255
 31
0.0
  0
LINE
  8
0
 62
     0
 10
3.38033
 20
5.46255
 30
0.0
 11
3.16673
 21
5.04363
 31
0.0
  0
LINE
  8
0
 62
     0
 10
3.16673
 20
5.04363
 30
0.0
 11
3.0937
 21
4.58061
 31
0.0
  0
LINE
  8
0
 62
     0
 10
3.0937
 20
4.58061
 30
0.0
 11
3.16673
 21
4.11759
 31
0.0
  0
LINE
  8
0
 62
     0
 10
3.16673
 20
4.11759
 30
0.0
 11
3.38033
 21
3.69866
 31
0.0
  0
LINE
  8
0
 62
     0
 10
3.38033
 20
3.69866
 30
0.0
 11
3.71242
 21
3.36655
 31
0.0
  0
LINE
  8
0
 62
     0
 10
3.71242
 20
3.36655
 30
0.0
 11
4.12997
 21
3.15433
 31
0.0
  0
LINE
  8
0
 62
     0
 10
4.12997
 20
3.15433
 30
0.0
 11
4.59437
 21
3.07992
 31
0.0
  0
LINE
  8
0
 62
     0
 10
4.59437
 20
3.07992
 30
0.0
 11
5.05739
 21
3.15433
 31
0.0
  0
LINE
  8
0
 62
     0
 10
5.05739
 20
3.15433
 30
0.0
 11
5.47493
 21
3.36655
 31
0.0
  0
LINE
  8
0
 62
     0
 10
5.47493
 20
3.36655
 30
0.0
 11
5.80704
 21
3.69866
 31
0.0
  0
LINE
  8
0
 62
     0
 10
5.80704
 20
3.69866
 30
0.0
 11
6.01927
 21
4.11759
 31
0.0
  0
LINE
  8
0
 62
     0
 10
6.01927
 20
4.11759
 30
0.0
 11
6.09367
 21
4.58061
 31
0.0
  0
LINE
  8
0
 62
     0
 10
6.09367
 20
4.58061
 30
0.0
 11
6.01927
 21
5.04363
 31
0.0
  0
LINE
  8
0
 62
     0
 10
6.01927
 20
5.04363
 30
0.0
 11
5.80704
 21
5.46255
 31
0.0
  0
LINE
  8
0
 62
     0
 10
5.80704
 20
5.46255
 30
0.0
 11
5.47493
 21
5.79466
 31
0.0
  0
LINE
  8
0
 62
     0
 10
5.47493
 20
5.79466
 30
0.0
 11
5.05739
 21
6.00685
 31
0.0
  0
LINE
  8
0
 62
     0
 10
5.05739
 20
6.00685
 30
0.0
 11
4.59437
 21
6.07991
 31
0.0
  0
LINE
  8
0
 62
     0
 10
4.59437
 20
6.07991
 30
0.0
 11
4.12997
 21
6.00685
 31
0.0
  0
LINE
  8
0
 62
     0
 10
154.005
 20
150.833
 30
0.0
 11
153.586
 21
150.62
 31
0.0
  0
LINE
  8
0
 62
     0
 10
153.586
 20
150.62
 30
0.0
 11
153.254
 21
150.288
 31
0.0
  0
LINE
  8
0
 62
     0
 10
153.254
 20
150.288
 30
0.0
 11
153.042
 21
149.87
 31
0.0
  0
LINE
  8
0
 62
     0
 10
153.042
 20
149.87
 30
0.0
 11
152.969
 21
149.406
 31
0.0
  0
LINE
  8
0
 62
     0
 10
152.969
 20
149.406
 30
0.0
 11
153.042
 21
148.942
 31
0.0
  0
LINE
  8
0
 62
     0
 10
153.042
 20
148.942
 30
0.0
 11
153.254
 21
148.525
 31
0.0
  0
LINE
  8
0
 62
     0
 10
153.254
 20
148.525
 30
0.0
 11
153.586
 21
148.193
 31
0.0
  0
LINE
  8
0
 62
     0
 10
153.586
 20
148.193
 30
0.0
 11
154.005
 21
147.981
 31
0.0
  0
LINE
  8
0
 62
     0
 10
154.005
 20
147.981
 30
0.0
 11
154.468
 21
147.906
 31
0.0
  0
LINE
  8
0
 62
     0
 10
154.468
 20
147.906
 30
0.0
 11
154.932
 21
147.981
 31
0.0
  0
LINE
  8
0
 62
     0
 10
154.932
 20
147.981
 30
0.0
 11
155.35
 21
148.193
 31
0.0
  0
LINE
  8
0
 62
     0
 10
155.35
 20
148.193
 30
0.0
 11
155.681
 21
148.525
 31
0.0
  0
LINE
  8
0
 62
     0
 10
155.681
 20
148.525
 30
0.0
 11
155.895
 21
148.942
 31
0.0
  0
LINE
  8
0
 62
     0
 10
155.895
 20
148.942
 30
0.0
 11
155.969
 21
149.406
 31
0.0
  0
LINE
  8
0
 62
     0
 10
155.969
 20
149.406
 30
0.0
 11
155.895
 21
149.87
 31
0.0
  0
LINE
  8
0
 62
     0
 10
155.895
 20
149.87
 30
0.0
 11
155.681
 21
150.288
 31
0.0
  0
LINE
  8
0
 62
     0
 10
155.681
 20
150.288
 30
0.0
 11
155.35
 21
150.62
 31
0.0
  0
LINE
  8
0
 62
     0
 10
155.35
 20
150.62
 30
0.0
 11
154.932
 21
150.833
 31
0.0
  0
LINE
  8
0
 62
     0
 10
154.932
 20
150.833
 30
0.0
 11
154.468
 21
150.906
 31
0.0
  0
LINE
  8
0
 62
     0
 10
154.468
 20
150.906
 30
0.0
 11
154.005
 21
150.833
 31
0.0
  0
LINE
  8
0
 62
     0
 10
303.881
 20
150.833
 30
0.0
 11
303.462
 21
150.62
 31
0.0
  0
LINE
  8
0
 62
     0
 10
303.462
 20
150.62
 30
0.0
 11
303.131
 21
150.288
 31
0.0
  0
LINE
  8
0
 62
     0
 10
303.131
 20
150.288
 30
0.0
 11
302.918
 21
149.87
 31
0.0
  0
LINE
  8
0
 62
     0
 10
302.918
 20
149.87
 30
0.0
 11
302.843
 21
149.406
 31
0.0
  0
LINE
  8
0
 62
     0
 10
302.843
 20
149.406
 30
0.0
 11
302.918
 21
148.942
 31
0.0
  0
LINE
  8
0
 62
     0
 10
302.918
 20
148.942
 30
0.0
 11
303.131
 21
148.525
 31
0.0
  0
LINE
  8
0
 62
     0
 10
303.131
 20
148.525
 30
0.0
 11
303.462
 21
148.193
 31
0.0
  0
LINE
  8
0
 62
     0
 10
303.462
 20
148.193
 30
0.0
 11
303.881
 21
147.981
 31
0.0
  0
LINE
  8
0
 62
     0
 10
303.881
 20
147.981
 30
0.0
 11
304.344
 21
147.906
 31
0.0
  0
LINE
  8
0
 62
     0
 10
304.344
 20
147.906
 30
0.0
 11
304.808
 21
147.981
 31
0.0
  0
LINE
  8
0
 62
     0
 10
304.808
 20
147.981
 30
0.0
 11
305.226
 21
148.193
 31
0.0
  0
LINE
  8
0
 62
     0
 10
305.226
 20
148.193
 30
0.0
 11
305.558
 21
148.525
 31
0.0
  0
LINE
  8
0
 62
     0
 10
305.558
 20
148.525
 30
0.0
 11
305.77
 21
148.942
 31
0.0
  0
LINE
  8
0
 62
     0
 10
305.77
 20
148.942
 30
0.0
 11
305.843
 21
149.406
 31
0.0
  0
LINE
  8
0
 62
     0
 10
305.843
 20
149.406
 30
0.0
 11
305.77
 21
149.87
 31
0.0
  0
LINE
  8
0
 62
     0
 10
305.77
 20
149.87
 30
0.0
 11
305.558
 21
150.288
 31
0.0
  0
LINE
  8
0
 62
     0
 10
305.558
 20
150.288
 30
0.0
 11
305.226
 21
150.62
 31
0.0
  0
LINE
  8
0
 62
     0
 10
305.226
 20
150.62
 30
0.0
 11
304.808
 21
150.833
 31
0.0
  0
LINE
  8
0
 62
     0
 10
304.808
 20
150.833
 30
0.0
 11
304.344
 21
150.906
 31
0.0
  0
LINE
  8
0
 62
     0
 10
304.344
 20
150.906
 30
0.0
 11
303.881
 21
150.833
 31
0.0
  0
LINE
  8
0
 62
     0
 10
453.757
 20
150.833
 30
0.0
 11
453.337
 21
150.62
 31
0.0
  0
LINE
  8
0
 62
     0
 10
453.337
 20
150.62
 30
0.0
 11
453.005
 21
150.288
 31
0.0
  0
LINE
  8
0
 62
     0
 10
453.005
 20
150.288
 30
0.0
 11
452.794
 21
149.87
 31
0.0
  0
LINE
  8
0
 62
     0
 10
452.794
 20
149.87
 30
0.0
 11
452.72
 21
149.406
 31
0.0
  0
LINE
  8
0
 62
     0
 10
452.72
 20
149.406
 30
0.0
 11
452.794
 21
148.942
 31
0.0
  0
LINE
  8
0
 62
     0
 10
452.794
 20
148.942
 30
0.0
 11
453.005
 21
148.525
 31
0.0
  0
LINE
  8
0
 62
     0
 10
453.005
 20
148.525
 30
0.0
 11
453.337
 21
148.193
 31
0.0
  0
LINE
  8
0
 62
     0
 10
453.337
 20
148.193
 30
0.0
 11
453.757
 21
147.981
 31
0.0
  0
LINE
  8
0
 62
     0
 10
453.757
 20
147.981
 30
0.0
 11
454.219
 21
147.906
 31
0.0
  0
LINE
  8
0
 62
     0
 10
454.219
 20
147.906
 30
0.0
 11
454.681
 21
147.981
 31
0.0
  0
LINE
  8
0
 62
     0
 10
454.681
 20
147.981
 30
0.0
 11
455.101
 21
148.193
 31
0.0
  0
LINE
  8
0
 62
     0
 10
455.101
 20
148.193
 30
0.0
 11
455.433
 21
148.525
 31
0.0
  0
LINE
  8
0
 62
     0
 10
455.433
 20
148.525
 30
0.0
 11
455.644
 21
148.942
 31
0.0
  0
LINE
  8
0
 62
     0
 10
455.644
 20
148.942
 30
0.0
 11
455.718
 21
149.406
 31
0.0
  0
LINE
  8
0
 62
     0
 10
455.718
 20
149.406
 30
0.0
 11
455.644
 21
149.87
 31
0.0
  0
LINE
  8
0
 62
     0
 10
455.644
 20
149.87
 30
0.0
 11
455.433
 21
150.288
 31
0.0
  0
LINE
  8
0
 62
     0
 10
455.433
 20
150.288
 30
0.0
 11
455.101
 21
150.62
 31
0.0
  0
LINE
  8
0
 62
     0
 10
455.101
 20
150.62
 30
0.0
 11
454.681
 21
150.833
 31
0.0
  0
LINE
  8
0
 62
     0
 10
454.681
 20
150.833
 30
0.0
 11
454.219
 21
150.906
 31
0.0
  0
LINE
  8
0
 62
     0
 10
454.219
 20
150.906
 30
0.0
 11
453.757
 21
150.833
 31
0.0
  0
LINE
  8
0
 62
     0
 10
4.12997
 20
150.833
 30
0.0
 11
3.71242
 21
150.62
 31
0.0
  0
LINE
  8
0
 62
     0
 10
3.71242
 20
150.62
 30
0.0
 11
3.38033
 21
150.288
 31
0.0
  0
LINE
  8
0
 62
     0
 10
3.38033
 20
150.288
 30
0.0
 11
3.16673
 21
149.87
 31
0.0
  0
LINE
  8
0
 62
     0
 10
3.16673
 20
149.87
 30
0.0
 11
3.0937
 21
149.406
 31
0.0
  0
LINE
  8
0
 62
     0
 10
3.0937
 20
149.406
 30
0.0
 11
3.16673
 21
148.942
 31
0.0
  0
LINE
  8
0
 62
     0
 10
3.16673
 20
148.942
 30
0.0
 11
3.38033
 21
148.525
 31
0.0
  0
LINE
  8
0
 62
     0
 10
3.38033
 20
148.525
 30
0.0
 11
3.71242
 21
148.193
 31
0.0
  0
LINE
  8
0
 62
     0
 10
3.71242
 20
148.193
 30
0.0
 11
4.12997
 21
147.981
 31
0.0
  0
LINE
  8
0
 62
     0
 10
4.12997
 20
147.981
 30
0.0
 11
4.59437
 21
147.906
 31
0.0
  0
LINE
  8
0
 62
     0
 10
4.59437
 20
147.906
 30
0.0
 11
5.05739
 21
147.981
 31
0.0
  0
LINE
  8
0
 62
     0
 10
5.05739
 20
147.981
 30
0.0
 11
5.47493
 21
148.193
 31
0.0
  0
LINE
  8
0
 62
     0
 10
5.47493
 20
148.193
 30
0.0
 11
5.80704
 21
148.525
 31
0.0
  0
LINE
  8
0
 62
     0
 10
5.80704
 20
148.525
 30
0.0
 11
6.01927
 21
148.942
 31
0.0
  0
LINE
  8
0
 62
     0
 10
6.01927
 20
148.942
 30
0.0
 11
6.09367
 21
149.406
 31
0.0
  0
LINE
  8
0
 62
     0
 10
6.09367
 20
149.406
 30
0.0
 11
6.01927
 21
149.87
 31
0.0
  0
LINE
  8
0
 62
     0
 10
6.01927
 20
149.87
 30
0.0
 11
5.80704
 21
150.288
 31
0.0
  0
LINE
  8
0
 62
     0
 10
5.80704
 20
150.288
 30
0.0
 11
5.47493
 21
150.62
 31
0.0
  0
LINE
  8
0
 62
     0
 10
5.47493
 20
150.62
 30
0.0
 11
5.05739
 21
150.833
 31
0.0
  0
LINE
  8
0
 62
     0
 10
5.05739
 20
150.833
 30
0.0
 11
4.59437
 21
150.906
 31
0.0
  0
LINE
  8
0
 62
     0
 10
4.59437
 20
150.906
 30
0.0
 11
4.12997
 21
150.833
 31
0.0
  0
ENDSEC
  0
EOF
