<?xml version="1.0"?>
<!-- Generated by SVGo -->
<svg width="468.626mm" height="163.826mm"
     viewBox="0.000 0.000 468.626 163.826"
     xmlns="http://www.w3.org/2000/svg" 
     xmlns:xlink="http://www.w3.org/1999/xlink">
<polygon points="463.626,158.826 5.000,158.826 5.000,5.000 463.626,5.000" style="fill:none;stroke-width:0.050000mm;stroke:black"/>
<polygon points="458.662,152.899 458.244,153.112 457.912,153.444 457.699,153.862 457.626,154.326 457.699,154.789 457.912,155.207 458.244,155.539 458.662,155.752 459.126,155.826 459.589,155.752 460.007,155.539 460.339,155.207 460.552,154.789 460.626,154.326 460.552,153.862 460.339,153.444 460.007,153.112 459.589,152.899 459.126,152.826" style="fill:none;stroke-width:0.050000mm;stroke:black"/>
<polygon points="308.787,152.899 308.368,153.112 308.037,153.444 307.824,153.862 307.750,154.326 307.824,154.789 308.037,155.207 308.368,155.539 308.787,155.752 309.250,155.826 309.714,155.752 310.132,155.539 310.464,155.207 310.677,154.789 310.750,154.326 310.677,153.862 310.464,153.444 310.132,153.112 309.714,152.899 309.250,152.826" style="fill:none;stroke-width:0.050000mm;stroke:black"/>
<polygon points="158.911,152.899 158.493,153.112 158.161,153.444 157.948,153.862 157.875,154.326 157.948,154.789 158.161,155.207 158.493,155.539 158.911,155.752 159.375,155.826 159.838,155.752 160.257,155.539 160.588,155.207 160.801,154.789 160.875,154.326 160.801,153.862 160.588,153.444 160.257,153.112 159.838,152.899 159.375,152.826" style="fill:none;stroke-width:0.050000mm;stroke:black"/>
<polygon points="9.036,152.899 8.618,153.112 8.286,153.444 8.073,153.862 8.000,154.326 8.073,154.789 8.286,155.207 8.618,155.539 9.036,155.752 9.500,155.826 9.963,155.752 10.381,155.539 10.713,155.207 10.926,154.789 11.000,154.326 10.926,153.862 10.713,153.444 10.381,153.112 9.963,152.899 9.500,152.826" style="fill:none;stroke-width:0.050000mm;stroke:black"/>
<polygon points="14.000,14.000 14.000,149.826 454.626,149.826 454.626,14.000" style="fill:none;stroke-width:0.050000mm;stroke:black"/>
<polygon points="158.911,8.073 158.493,8.286 158.161,8.618 157.948,9.036 157.875,9.500 157.948,9.963 158.161,10.381 158.493,10.713 158.911,10.926 159.375,11.000 159.838,10.926 160.257,10.713 160.588,10.381 160.801,9.963 160.875,9.500 160.801,9.036 160.588,8.618 160.257,8.286 159.838,8.073 159.375,8.000" style="fill:none;stroke-width:0.050000mm;stroke:black"/>
<polygon points="308.787,8.073 308.368,8.286 308.037,8.618 307.824,9.036 307.750,9.500 307.824,9.963 308.037,10.381 308.368,10.713 308.787,10.926 309.250,11.000 309.714,10.926 310.132,10.713 310.464,10.381 310.677,9.963 310.750,9.500 310.677,9.036 310.464,8.618 310.132,8.286 309.714,8.073 309.250,8.000" style="fill:none;stroke-width:0.050000mm;stroke:black"/>
<polygon points="458.662,8.073 458.244,8.286 457.912,8.618 457.699,9.036 457.626,9.500 457.699,9.963 457.912,10.381 458.244,10.713 458.662,10.926 459.126,11.000 459.589,10.926 460.007,10.713 460.339,10.381 460.552,9.963 460.626,9.500 460.552,9.036 460.339,8.618 460.007,8.286 459.589,8.073 459.126,8.000" style="fill:none;stroke-width:0.050000mm;stroke:black"/>
<polygon points="9.036,8.073 8.618,8.286 8.286,8.618 8.073,9.036 8.000,9.500 8.073,9.963 8.286,10.381 8.618,10.713 9.036,10.926 9.500,11.000 9.963,10.926 10.381,10.713 10.713,10.381 10.926,9.963 11.000,9.500 10.926,9.036 10.713,8.618 10.381,8.286 9.963,8.073 9.500,8.000" style="fill:none;stroke-width:0.050000mm;stroke:black"/>
</svg>
