<?xml version="1.0"?>
<!-- Generated by SVGo -->
<svg width="468.626mm" height="163.826mm"
     viewBox="0.000 0.000 468.626 163.826"
     xmlns="http://www.w3.org/2000/svg" 
     xmlns:xlink="http://www.w3.org/1999/xlink">
<polygon points="463.626,158.826 5.000,158.826 5.000,5.000 463.626,5.000" style="fill:none;stroke-width:0.050000mm;stroke:black"/>
<polygon points="458.662,152.899 458.244,153.112 457.912,153.444 457.699,153.862 457.626,154.326 457.699,154.789 457.912,155.207 458.244,155.539 458.662,155.752 459.126,155.826 459.589,155.752 460.007,155.539 460.339,155.207 460.552,154.789 460.626,154.326 460.552,153.862 460.339,153.444 460.007,153.112 459.589,152.899 459.126,152.826" style="fill:none;stroke-width:0.050000mm;stroke:black"/>
<polygon points="308.787,152.899 308.368,153.112 308.037,153.444 307.824,153.862 307.750,154.326 307.824,154.789 308.037,155.207 308.368,155.539 308.787,155.752 309.250,155.826 309.714,155.752 310.132,155.539 310.464,155.207 310.677,154.789 310.750,154.326 310.677,153.862 310.464,153.444 310.132,153.112 309.714,152.899 309.250,152.826" style="fill:none;stroke-width:0.050000mm;stroke:black"/>
<polygon points="158.911,152.899 158.493,153.112 158.161,153.444 157.948,153.862 157.875,154.326 157.948,154.789 158.161,155.207 158.493,155.539 158.911,155.752 159.375,155.826 159.838,155.752 160.257,155.539 160.588,155.207 160.801,154.789 160.875,154.326 160.801,153.862 160.588,153.444 160.257,153.112 159.838,152.899 159.375,152.826" style="fill:none;stroke-width:0.050000mm;stroke:black"/>
<polygon points="9.036,152.899 8.618,153.112 8.286,153.444 8.073,153.862 8.000,154.326 8.073,154.789 8.286,155.207 8.618,155.539 9.036,155.752 9.500,155.826 9.963,155.752 10.381,155.539 10.713,155.207 10.926,154.789 11.000,154.326 10.926,153.862 10.713,153.444 10.381,153.112 9.963,152.899 9.500,152.826" style="fill:none;stroke-width:0.050000mm;stroke:black"/>
<polygon points="143.968,127.300 143.968,128.300 143.168,128.300 143.168,131.400 143.968,131.400 143.968,132.000 104.343,132.000 104.343,128.770 97.593,128.770 97.593,132.000 96.768,132.000 96.768,134.800 97.593,134.800 97.593,141.070 99.318,141.070 99.318,142.270 102.618,142.270 102.618,141.070 104.343,141.070 104.343,136.600 143.968,136.600 143.968,137.200 143.168,137.200 143.168,140.300 143.968,140.300 143.968,141.300 157.968,141.300 157.968,140.300 158.768,140.300 158.768,137.200 157.968,137.200 157.968,136.600 197.593,136.600 197.593,141.070 199.318,141.070 199.318,142.270 202.618,142.270 202.618,141.070 204.343,141.070 204.343,134.800 205.168,134.800 205.168,132.000 204.343,132.000 204.343,128.770 197.593,128.770 197.593,132.000 157.968,132.000 157.968,131.400 158.768,131.400 158.768,128.300 157.968,128.300 157.968,127.300" style="fill:none;stroke-width:0.050000mm;stroke:black"/>
<polygon points="384.475,127.300 384.475,128.300 383.675,128.300 383.675,131.400 384.475,131.400 384.475,132.000 382.950,132.000 382.950,128.770 376.200,128.770 376.200,132.000 375.375,132.000 375.375,134.800 376.200,134.800 376.200,141.070 377.925,141.070 377.925,142.270 381.225,142.270 381.225,141.070 382.950,141.070 382.950,136.600 384.475,136.600 384.475,137.200 383.675,137.200 383.675,140.300 384.475,140.300 384.475,141.300 398.475,141.300 398.475,140.300 399.275,140.300 399.275,137.200 398.475,137.200 398.475,136.600 400.000,136.600 400.000,141.070 401.725,141.070 401.725,142.270 405.025,142.270 405.025,141.070 406.750,141.070 406.750,134.800 407.575,134.800 407.575,132.000 406.750,132.000 406.750,128.770 400.000,128.770 400.000,132.000 398.475,132.000 398.475,131.400 399.275,131.400 399.275,128.300 398.475,128.300 398.475,127.300" style="fill:none;stroke-width:0.050000mm;stroke:black"/>
<polygon points="24.906,127.300 24.906,128.300 24.106,128.300 24.106,131.400 24.906,131.400 24.906,137.200 24.106,137.200 24.106,140.300 24.906,140.300 24.906,141.300 38.906,141.300 38.906,140.300 39.706,140.300 39.706,137.200 38.906,137.200 38.906,131.400 39.706,131.400 39.706,128.300 38.906,128.300 38.906,127.300" style="fill:none;stroke-width:0.050000mm;stroke:black"/>
<polygon points="48.718,127.300 48.718,128.300 47.918,128.300 47.918,131.400 48.718,131.400 48.718,137.200 47.918,137.200 47.918,140.300 48.718,140.300 48.718,141.300 62.718,141.300 62.718,140.300 63.518,140.300 63.518,137.200 62.718,137.200 62.718,131.400 63.518,131.400 63.518,128.300 62.718,128.300 62.718,127.300" style="fill:none;stroke-width:0.050000mm;stroke:black"/>
<polygon points="72.531,127.300 72.531,128.300 71.731,128.300 71.731,131.400 72.531,131.400 72.531,137.200 71.731,137.200 71.731,140.300 72.531,140.300 72.531,141.300 86.531,141.300 86.531,140.300 87.331,140.300 87.331,137.200 86.531,137.200 86.531,131.400 87.331,131.400 87.331,128.300 86.531,128.300 86.531,127.300" style="fill:none;stroke-width:0.050000mm;stroke:black"/>
<polygon points="215.406,127.300 215.406,128.300 214.606,128.300 214.606,131.400 215.406,131.400 215.406,137.200 214.606,137.200 214.606,140.300 215.406,140.300 215.406,141.300 229.406,141.300 229.406,140.300 230.206,140.300 230.206,137.200 229.406,137.200 229.406,131.400 230.206,131.400 230.206,128.300 229.406,128.300 229.406,127.300" style="fill:none;stroke-width:0.050000mm;stroke:black"/>
<polygon points="239.218,127.300 239.218,128.300 238.418,128.300 238.418,131.400 239.218,131.400 239.218,137.200 238.418,137.200 238.418,140.300 239.218,140.300 239.218,141.300 253.218,141.300 253.218,140.300 254.018,140.300 254.018,137.200 253.218,137.200 253.218,131.400 254.018,131.400 254.018,128.300 253.218,128.300 253.218,127.300" style="fill:none;stroke-width:0.050000mm;stroke:black"/>
<polygon points="263.031,127.300 263.031,128.300 262.231,128.300 262.231,131.400 263.031,131.400 263.031,137.200 262.231,137.200 262.231,140.300 263.031,140.300 263.031,141.300 277.031,141.300 277.031,140.300 277.831,140.300 277.831,137.200 277.031,137.200 277.031,131.400 277.831,131.400 277.831,128.300 277.031,128.300 277.031,127.300" style="fill:none;stroke-width:0.050000mm;stroke:black"/>
<polygon points="286.843,127.300 286.843,128.300 286.043,128.300 286.043,131.400 286.843,131.400 286.843,137.200 286.043,137.200 286.043,140.300 286.843,140.300 286.843,141.300 300.843,141.300 300.843,140.300 301.643,140.300 301.643,137.200 300.843,137.200 300.843,131.400 301.643,131.400 301.643,128.300 300.843,128.300 300.843,127.300" style="fill:none;stroke-width:0.050000mm;stroke:black"/>
<polygon points="313.037,127.300 313.037,128.300 312.237,128.300 312.237,131.400 313.037,131.400 313.037,137.200 312.237,137.200 312.237,140.300 313.037,140.300 313.037,141.300 327.037,141.300 327.037,140.300 327.837,140.300 327.837,137.200 327.037,137.200 327.037,131.400 327.837,131.400 327.837,128.300 327.037,128.300 327.037,127.300" style="fill:none;stroke-width:0.050000mm;stroke:black"/>
<polygon points="332.087,127.300 332.087,128.300 331.287,128.300 331.287,131.400 332.087,131.400 332.087,137.200 331.287,137.200 331.287,140.300 332.087,140.300 332.087,141.300 346.087,141.300 346.087,140.300 346.887,140.300 346.887,137.200 346.087,137.200 346.087,131.400 346.887,131.400 346.887,128.300 346.087,128.300 346.087,127.300" style="fill:none;stroke-width:0.050000mm;stroke:black"/>
<polygon points="351.137,127.300 351.137,128.300 350.337,128.300 350.337,131.400 351.137,131.400 351.137,137.200 350.337,137.200 350.337,140.300 351.137,140.300 351.137,141.300 365.137,141.300 365.137,140.300 365.937,140.300 365.937,137.200 365.137,137.200 365.137,131.400 365.937,131.400 365.937,128.300 365.137,128.300 365.137,127.300" style="fill:none;stroke-width:0.050000mm;stroke:black"/>
<polygon points="413.050,127.300 413.050,128.300 412.250,128.300 412.250,131.400 413.050,131.400 413.050,137.200 412.250,137.200 412.250,140.300 413.050,140.300 413.050,141.300 427.050,141.300 427.050,140.300 427.850,140.300 427.850,137.200 427.050,137.200 427.050,131.400 427.850,131.400 427.850,128.300 427.050,128.300 427.050,127.300" style="fill:none;stroke-width:0.050000mm;stroke:black"/>
<polygon points="438.600,108.675 438.600,109.500 432.330,109.500 432.330,111.225 431.130,111.225 431.130,114.525 432.330,114.525 432.330,116.250 436.800,116.250 436.800,117.775 436.200,117.775 436.200,116.975 433.100,116.975 433.100,117.775 432.100,117.775 432.100,131.775 433.100,131.775 433.100,132.575 436.200,132.575 436.200,131.775 436.800,131.775 436.800,133.300 432.330,133.300 432.330,135.025 431.130,135.025 431.130,138.325 432.330,138.325 432.330,140.050 438.600,140.050 438.600,140.875 441.400,140.875 441.400,140.050 444.630,140.050 444.630,133.300 441.400,133.300 441.400,131.775 442.000,131.775 442.000,132.575 445.100,132.575 445.100,131.775 446.100,131.775 446.100,117.775 445.100,117.775 445.100,116.975 442.000,116.975 442.000,117.775 441.400,117.775 441.400,116.250 444.630,116.250 444.630,109.500 441.400,109.500 441.400,108.675" style="fill:none;stroke-width:0.050000mm;stroke:black"/>
<polygon points="272.556,108.250 272.556,109.250 271.756,109.250 271.756,112.350 272.556,112.350 272.556,112.950 271.031,112.950 271.031,109.720 264.281,109.720 264.281,112.950 263.456,112.950 263.456,115.750 264.281,115.750 264.281,122.020 266.006,122.020 266.006,123.220 269.306,123.220 269.306,122.020 271.031,122.020 271.031,117.550 272.556,117.550 272.556,118.150 271.756,118.150 271.756,121.250 272.556,121.250 272.556,122.250 286.556,122.250 286.556,121.250 287.356,121.250 287.356,118.150 286.556,118.150 286.556,117.550 288.081,117.550 288.081,122.020 289.806,122.020 289.806,123.220 293.106,123.220 293.106,122.020 294.831,122.020 294.831,115.750 295.656,115.750 295.656,112.950 294.831,112.950 294.831,109.720 288.081,109.720 288.081,112.950 286.556,112.950 286.556,112.350 287.356,112.350 287.356,109.250 286.556,109.250 286.556,108.250" style="fill:none;stroke-width:0.050000mm;stroke:black"/>
<polygon points="24.906,108.250 24.906,109.250 24.106,109.250 24.106,112.350 24.906,112.350 24.906,118.150 24.106,118.150 24.106,121.250 24.906,121.250 24.906,122.250 38.906,122.250 38.906,121.250 39.706,121.250 39.706,118.150 38.906,118.150 38.906,112.350 39.706,112.350 39.706,109.250 38.906,109.250 38.906,108.250" style="fill:none;stroke-width:0.050000mm;stroke:black"/>
<polygon points="46.337,108.250 46.337,109.250 45.537,109.250 45.537,112.350 46.337,112.350 46.337,118.150 45.537,118.150 45.537,121.250 46.337,121.250 46.337,122.250 60.337,122.250 60.337,121.250 61.137,121.250 61.137,118.150 60.337,118.150 60.337,112.350 61.137,112.350 61.137,109.250 60.337,109.250 60.337,108.250" style="fill:none;stroke-width:0.050000mm;stroke:black"/>
<polygon points="65.387,108.250 65.387,109.250 64.587,109.250 64.587,112.350 65.387,112.350 65.387,118.150 64.587,118.150 64.587,121.250 65.387,121.250 65.387,122.250 79.387,122.250 79.387,121.250 80.187,121.250 80.187,118.150 79.387,118.150 79.387,112.350 80.187,112.350 80.187,109.250 79.387,109.250 79.387,108.250" style="fill:none;stroke-width:0.050000mm;stroke:black"/>
<polygon points="84.437,108.250 84.437,109.250 83.637,109.250 83.637,112.350 84.437,112.350 84.437,118.150 83.637,118.150 83.637,121.250 84.437,121.250 84.437,122.250 98.437,122.250 98.437,121.250 99.237,121.250 99.237,118.150 98.437,118.150 98.437,112.350 99.237,112.350 99.237,109.250 98.437,109.250 98.437,108.250" style="fill:none;stroke-width:0.050000mm;stroke:black"/>
<polygon points="103.487,108.250 103.487,109.250 102.687,109.250 102.687,112.350 103.487,112.350 103.487,118.150 102.687,118.150 102.687,121.250 103.487,121.250 103.487,122.250 117.487,122.250 117.487,121.250 118.287,121.250 118.287,118.150 117.487,118.150 117.487,112.350 118.287,112.350 118.287,109.250 117.487,109.250 117.487,108.250" style="fill:none;stroke-width:0.050000mm;stroke:black"/>
<polygon points="122.537,108.250 122.537,109.250 121.737,109.250 121.737,112.350 122.537,112.350 122.537,118.150 121.737,118.150 121.737,121.250 122.537,121.250 122.537,122.250 136.537,122.250 136.537,121.250 137.337,121.250 137.337,118.150 136.537,118.150 136.537,112.350 137.337,112.350 137.337,109.250 136.537,109.250 136.537,108.250" style="fill:none;stroke-width:0.050000mm;stroke:black"/>
<polygon points="141.587,108.250 141.587,109.250 140.787,109.250 140.787,112.350 141.587,112.350 141.587,118.150 140.787,118.150 140.787,121.250 141.587,121.250 141.587,122.250 155.587,122.250 155.587,121.250 156.387,121.250 156.387,118.150 155.587,118.150 155.587,112.350 156.387,112.350 156.387,109.250 155.587,109.250 155.587,108.250" style="fill:none;stroke-width:0.050000mm;stroke:black"/>
<polygon points="160.637,108.250 160.637,109.250 159.837,109.250 159.837,112.350 160.637,112.350 160.637,118.150 159.837,118.150 159.837,121.250 160.637,121.250 160.637,122.250 174.637,122.250 174.637,121.250 175.437,121.250 175.437,118.150 174.637,118.150 174.637,112.350 175.437,112.350 175.437,109.250 174.637,109.250 174.637,108.250" style="fill:none;stroke-width:0.050000mm;stroke:black"/>
<polygon points="179.687,108.250 179.687,109.250 178.887,109.250 178.887,112.350 179.687,112.350 179.687,118.150 178.887,118.150 178.887,121.250 179.687,121.250 179.687,122.250 193.687,122.250 193.687,121.250 194.487,121.250 194.487,118.150 193.687,118.150 193.687,112.350 194.487,112.350 194.487,109.250 193.687,109.250 193.687,108.250" style="fill:none;stroke-width:0.050000mm;stroke:black"/>
<polygon points="198.737,108.250 198.737,109.250 197.937,109.250 197.937,112.350 198.737,112.350 198.737,118.150 197.937,118.150 197.937,121.250 198.737,121.250 198.737,122.250 212.737,122.250 212.737,121.250 213.537,121.250 213.537,118.150 212.737,118.150 212.737,112.350 213.537,112.350 213.537,109.250 212.737,109.250 212.737,108.250" style="fill:none;stroke-width:0.050000mm;stroke:black"/>
<polygon points="217.787,108.250 217.787,109.250 216.987,109.250 216.987,112.350 217.787,112.350 217.787,118.150 216.987,118.150 216.987,121.250 217.787,121.250 217.787,122.250 231.787,122.250 231.787,121.250 232.587,121.250 232.587,118.150 231.787,118.150 231.787,112.350 232.587,112.350 232.587,109.250 231.787,109.250 231.787,108.250" style="fill:none;stroke-width:0.050000mm;stroke:black"/>
<polygon points="236.837,108.250 236.837,109.250 236.037,109.250 236.037,112.350 236.837,112.350 236.837,118.150 236.037,118.150 236.037,121.250 236.837,121.250 236.837,122.250 250.837,122.250 250.837,121.250 251.637,121.250 251.637,118.150 250.837,118.150 250.837,112.350 251.637,112.350 251.637,109.250 250.837,109.250 250.837,108.250" style="fill:none;stroke-width:0.050000mm;stroke:black"/>
<polygon points="332.087,108.250 332.087,109.250 331.287,109.250 331.287,112.350 332.087,112.350 332.087,118.150 331.287,118.150 331.287,121.250 332.087,121.250 332.087,122.250 346.087,122.250 346.087,121.250 346.887,121.250 346.887,118.150 346.087,118.150 346.087,112.350 346.887,112.350 346.887,109.250 346.087,109.250 346.087,108.250" style="fill:none;stroke-width:0.050000mm;stroke:black"/>
<polygon points="374.950,108.250 374.950,109.250 374.150,109.250 374.150,112.350 374.950,112.350 374.950,118.150 374.150,118.150 374.150,121.250 374.950,121.250 374.950,122.250 388.950,122.250 388.950,121.250 389.750,121.250 389.750,118.150 388.950,118.150 388.950,112.350 389.750,112.350 389.750,109.250 388.950,109.250 388.950,108.250" style="fill:none;stroke-width:0.050000mm;stroke:black"/>
<polygon points="394.000,108.250 394.000,109.250 393.200,109.250 393.200,112.350 394.000,112.350 394.000,118.150 393.200,118.150 393.200,121.250 394.000,121.250 394.000,122.250 408.000,122.250 408.000,121.250 408.800,121.250 408.800,118.150 408.000,118.150 408.000,112.350 408.800,112.350 408.800,109.250 408.000,109.250 408.000,108.250" style="fill:none;stroke-width:0.050000mm;stroke:black"/>
<polygon points="413.050,108.250 413.050,109.250 412.250,109.250 412.250,112.350 413.050,112.350 413.050,118.150 412.250,118.150 412.250,121.250 413.050,121.250 413.050,122.250 427.050,122.250 427.050,121.250 427.850,121.250 427.850,118.150 427.050,118.150 427.050,112.350 427.850,112.350 427.850,109.250 427.050,109.250 427.050,108.250" style="fill:none;stroke-width:0.050000mm;stroke:black"/>
<polygon points="29.668,89.200 29.668,90.200 28.868,90.200 28.868,93.300 29.668,93.300 29.668,99.100 28.868,99.100 28.868,102.200 29.668,102.200 29.668,103.200 43.668,103.200 43.668,102.200 44.468,102.200 44.468,99.100 43.668,99.100 43.668,93.300 44.468,93.300 44.468,90.200 43.668,90.200 43.668,89.200" style="fill:none;stroke-width:0.050000mm;stroke:black"/>
<polygon points="55.862,89.200 55.862,90.200 55.062,90.200 55.062,93.300 55.862,93.300 55.862,99.100 55.062,99.100 55.062,102.200 55.862,102.200 55.862,103.200 69.862,103.200 69.862,102.200 70.662,102.200 70.662,99.100 69.862,99.100 69.862,93.300 70.662,93.300 70.662,90.200 69.862,90.200 69.862,89.200" style="fill:none;stroke-width:0.050000mm;stroke:black"/>
<polygon points="74.912,89.200 74.912,90.200 74.112,90.200 74.112,93.300 74.912,93.300 74.912,99.100 74.112,99.100 74.112,102.200 74.912,102.200 74.912,103.200 88.912,103.200 88.912,102.200 89.712,102.200 89.712,99.100 88.912,99.100 88.912,93.300 89.712,93.300 89.712,90.200 88.912,90.200 88.912,89.200" style="fill:none;stroke-width:0.050000mm;stroke:black"/>
<polygon points="93.962,89.200 93.962,90.200 93.162,90.200 93.162,93.300 93.962,93.300 93.962,99.100 93.162,99.100 93.162,102.200 93.962,102.200 93.962,103.200 107.962,103.200 107.962,102.200 108.762,102.200 108.762,99.100 107.962,99.100 107.962,93.300 108.762,93.300 108.762,90.200 107.962,90.200 107.962,89.200" style="fill:none;stroke-width:0.050000mm;stroke:black"/>
<polygon points="113.012,89.200 113.012,90.200 112.212,90.200 112.212,93.300 113.012,93.300 113.012,99.100 112.212,99.100 112.212,102.200 113.012,102.200 113.012,103.200 127.012,103.200 127.012,102.200 127.812,102.200 127.812,99.100 127.012,99.100 127.012,93.300 127.812,93.300 127.812,90.200 127.012,90.200 127.012,89.200" style="fill:none;stroke-width:0.050000mm;stroke:black"/>
<polygon points="132.062,89.200 132.062,90.200 131.262,90.200 131.262,93.300 132.062,93.300 132.062,99.100 131.262,99.100 131.262,102.200 132.062,102.200 132.062,103.200 146.062,103.200 146.062,102.200 146.862,102.200 146.862,99.100 146.062,99.100 146.062,93.300 146.862,93.300 146.862,90.200 146.062,90.200 146.062,89.200" style="fill:none;stroke-width:0.050000mm;stroke:black"/>
<polygon points="151.112,89.200 151.112,90.200 150.312,90.200 150.312,93.300 151.112,93.300 151.112,99.100 150.312,99.100 150.312,102.200 151.112,102.200 151.112,103.200 165.112,103.200 165.112,102.200 165.912,102.200 165.912,99.100 165.112,99.100 165.112,93.300 165.912,93.300 165.912,90.200 165.112,90.200 165.112,89.200" style="fill:none;stroke-width:0.050000mm;stroke:black"/>
<polygon points="170.162,89.200 170.162,90.200 169.362,90.200 169.362,93.300 170.162,93.300 170.162,99.100 169.362,99.100 169.362,102.200 170.162,102.200 170.162,103.200 184.162,103.200 184.162,102.200 184.962,102.200 184.962,99.100 184.162,99.100 184.162,93.300 184.962,93.300 184.962,90.200 184.162,90.200 184.162,89.200" style="fill:none;stroke-width:0.050000mm;stroke:black"/>
<polygon points="189.212,89.200 189.212,90.200 188.412,90.200 188.412,93.300 189.212,93.300 189.212,99.100 188.412,99.100 188.412,102.200 189.212,102.200 189.212,103.200 203.212,103.200 203.212,102.200 204.012,102.200 204.012,99.100 203.212,99.100 203.212,93.300 204.012,93.300 204.012,90.200 203.212,90.200 203.212,89.200" style="fill:none;stroke-width:0.050000mm;stroke:black"/>
<polygon points="208.262,89.200 208.262,90.200 207.462,90.200 207.462,93.300 208.262,93.300 208.262,99.100 207.462,99.100 207.462,102.200 208.262,102.200 208.262,103.200 222.262,103.200 222.262,102.200 223.062,102.200 223.062,99.100 222.262,99.100 222.262,93.300 223.062,93.300 223.062,90.200 222.262,90.200 222.262,89.200" style="fill:none;stroke-width:0.050000mm;stroke:black"/>
<polygon points="227.312,89.200 227.312,90.200 226.512,90.200 226.512,93.300 227.312,93.300 227.312,99.100 226.512,99.100 226.512,102.200 227.312,102.200 227.312,103.200 241.312,103.200 241.312,102.200 242.112,102.200 242.112,99.100 241.312,99.100 241.312,93.300 242.112,93.300 242.112,90.200 241.312,90.200 241.312,89.200" style="fill:none;stroke-width:0.050000mm;stroke:black"/>
<polygon points="246.362,89.200 246.362,90.200 245.562,90.200 245.562,93.300 246.362,93.300 246.362,99.100 245.562,99.100 245.562,102.200 246.362,102.200 246.362,103.200 260.362,103.200 260.362,102.200 261.161,102.200 261.161,99.100 260.362,99.100 260.362,93.300 261.161,93.300 261.161,90.200 260.362,90.200 260.362,89.200" style="fill:none;stroke-width:0.050000mm;stroke:black"/>
<polygon points="265.412,89.200 265.412,90.200 264.612,90.200 264.612,93.300 265.412,93.300 265.412,99.100 264.612,99.100 264.612,102.200 265.412,102.200 265.412,103.200 279.412,103.200 279.412,102.200 280.212,102.200 280.212,99.100 279.412,99.100 279.412,93.300 280.212,93.300 280.212,90.200 279.412,90.200 279.412,89.200" style="fill:none;stroke-width:0.050000mm;stroke:black"/>
<polygon points="374.950,89.200 374.950,90.200 374.150,90.200 374.150,93.300 374.950,93.300 374.950,99.100 374.150,99.100 374.150,102.200 374.950,102.200 374.950,103.200 388.950,103.200 388.950,102.200 389.750,102.200 389.750,99.100 388.950,99.100 388.950,93.300 389.750,93.300 389.750,90.200 388.950,90.200 388.950,89.200" style="fill:none;stroke-width:0.050000mm;stroke:black"/>
<polygon points="394.000,89.200 394.000,90.200 393.200,90.200 393.200,93.300 394.000,93.300 394.000,99.100 393.200,99.100 393.200,102.200 394.000,102.200 394.000,103.200 408.000,103.200 408.000,102.200 408.800,102.200 408.800,99.100 408.000,99.100 408.000,93.300 408.800,93.300 408.800,90.200 408.000,90.200 408.000,89.200" style="fill:none;stroke-width:0.050000mm;stroke:black"/>
<polygon points="413.050,89.200 413.050,90.200 412.250,90.200 412.250,93.300 413.050,93.300 413.050,99.100 412.250,99.100 412.250,102.200 413.050,102.200 413.050,103.200 427.050,103.200 427.050,102.200 427.850,102.200 427.850,99.100 427.050,99.100 427.050,93.300 427.850,93.300 427.850,90.200 427.050,90.200 427.050,89.200" style="fill:none;stroke-width:0.050000mm;stroke:black"/>
<polygon points="432.100,89.200 432.100,90.200 431.300,90.200 431.300,93.300 432.100,93.300 432.100,99.100 431.300,99.100 431.300,102.200 432.100,102.200 432.100,103.200 446.100,103.200 446.100,102.200 446.900,102.200 446.900,99.100 446.100,99.100 446.100,93.300 446.900,93.300 446.900,90.200 446.100,90.200 446.100,89.200" style="fill:none;stroke-width:0.050000mm;stroke:black"/>
<polygon points="293.343,70.575 293.343,71.400 287.073,71.400 287.073,73.125 285.873,73.125 285.873,76.425 287.073,76.425 287.073,78.150 291.543,78.150 291.543,79.675 290.943,79.675 290.943,78.875 287.843,78.875 287.843,79.675 286.843,79.675 286.843,93.675 287.843,93.675 287.843,94.475 290.943,94.475 290.943,93.675 291.543,93.675 291.543,95.200 287.073,95.200 287.073,96.925 285.873,96.925 285.873,100.225 287.073,100.225 287.073,101.950 293.343,101.950 293.343,102.775 296.143,102.775 296.143,101.950 299.373,101.950 299.373,95.200 296.143,95.200 296.143,93.675 296.743,93.675 296.743,94.475 299.843,94.475 299.843,93.675 300.843,93.675 300.843,79.675 299.843,79.675 299.843,78.875 296.743,78.875 296.743,79.675 296.143,79.675 296.143,78.150 299.373,78.150 299.373,71.400 296.143,71.400 296.143,70.575" style="fill:none;stroke-width:0.050000mm;stroke:black"/>
<polygon points="27.287,70.150 27.287,71.150 26.487,71.150 26.487,74.250 27.287,74.250 27.287,80.050 26.487,80.050 26.487,83.150 27.287,83.150 27.287,84.150 41.287,84.150 41.287,83.150 42.087,83.150 42.087,80.050 41.287,80.050 41.287,74.250 42.087,74.250 42.087,71.150 41.287,71.150 41.287,70.150" style="fill:none;stroke-width:0.050000mm;stroke:black"/>
<polygon points="51.100,70.150 51.100,71.150 50.300,71.150 50.300,74.250 51.100,74.250 51.100,80.050 50.300,80.050 50.300,83.150 51.100,83.150 51.100,84.150 65.099,84.150 65.099,83.150 65.900,83.150 65.900,80.050 65.099,80.050 65.099,74.250 65.900,74.250 65.900,71.150 65.099,71.150 65.099,70.150" style="fill:none;stroke-width:0.050000mm;stroke:black"/>
<polygon points="70.150,70.150 70.150,71.150 69.350,71.150 69.350,74.250 70.150,74.250 70.150,80.050 69.350,80.050 69.350,83.150 70.150,83.150 70.150,84.150 84.150,84.150 84.150,83.150 84.950,83.150 84.950,80.050 84.150,80.050 84.150,74.250 84.950,74.250 84.950,71.150 84.150,71.150 84.150,70.150" style="fill:none;stroke-width:0.050000mm;stroke:black"/>
<polygon points="89.200,70.150 89.200,71.150 88.400,71.150 88.400,74.250 89.200,74.250 89.200,80.050 88.400,80.050 88.400,83.150 89.200,83.150 89.200,84.150 103.200,84.150 103.200,83.150 104.000,83.150 104.000,80.050 103.200,80.050 103.200,74.250 104.000,74.250 104.000,71.150 103.200,71.150 103.200,70.150" style="fill:none;stroke-width:0.050000mm;stroke:black"/>
<polygon points="108.250,70.150 108.250,71.150 107.450,71.150 107.450,74.250 108.250,74.250 108.250,80.050 107.450,80.050 107.450,83.150 108.250,83.150 108.250,84.150 122.250,84.150 122.250,83.150 123.050,83.150 123.050,80.050 122.250,80.050 122.250,74.250 123.050,74.250 123.050,71.150 122.250,71.150 122.250,70.150" style="fill:none;stroke-width:0.050000mm;stroke:black"/>
<polygon points="127.300,70.150 127.300,71.150 126.500,71.150 126.500,74.250 127.300,74.250 127.300,80.050 126.500,80.050 126.500,83.150 127.300,83.150 127.300,84.150 141.300,84.150 141.300,83.150 142.100,83.150 142.100,80.050 141.300,80.050 141.300,74.250 142.100,74.250 142.100,71.150 141.300,71.150 141.300,70.150" style="fill:none;stroke-width:0.050000mm;stroke:black"/>
<polygon points="146.350,70.150 146.350,71.150 145.550,71.150 145.550,74.250 146.350,74.250 146.350,80.050 145.550,80.050 145.550,83.150 146.350,83.150 146.350,84.150 160.350,84.150 160.350,83.150 161.150,83.150 161.150,80.050 160.350,80.050 160.350,74.250 161.150,74.250 161.150,71.150 160.350,71.150 160.350,70.150" style="fill:none;stroke-width:0.050000mm;stroke:black"/>
<polygon points="165.400,70.150 165.400,71.150 164.600,71.150 164.600,74.250 165.400,74.250 165.400,80.050 164.600,80.050 164.600,83.150 165.400,83.150 165.400,84.150 179.400,84.150 179.400,83.150 180.200,83.150 180.200,80.050 179.400,80.050 179.400,74.250 180.200,74.250 180.200,71.150 179.400,71.150 179.400,70.150" style="fill:none;stroke-width:0.050000mm;stroke:black"/>
<polygon points="184.450,70.150 184.450,71.150 183.650,71.150 183.650,74.250 184.450,74.250 184.450,80.050 183.650,80.050 183.650,83.150 184.450,83.150 184.450,84.150 198.450,84.150 198.450,83.150 199.250,83.150 199.250,80.050 198.450,80.050 198.450,74.250 199.250,74.250 199.250,71.150 198.450,71.150 198.450,70.150" style="fill:none;stroke-width:0.050000mm;stroke:black"/>
<polygon points="203.500,70.150 203.500,71.150 202.700,71.150 202.700,74.250 203.500,74.250 203.500,80.050 202.700,80.050 202.700,83.150 203.500,83.150 203.500,84.150 217.500,84.150 217.500,83.150 218.300,83.150 218.300,80.050 217.500,80.050 217.500,74.250 218.300,74.250 218.300,71.150 217.500,71.150 217.500,70.150" style="fill:none;stroke-width:0.050000mm;stroke:black"/>
<polygon points="222.550,70.150 222.550,71.150 221.750,71.150 221.750,74.250 222.550,74.250 222.550,80.050 221.750,80.050 221.750,83.150 222.550,83.150 222.550,84.150 236.550,84.150 236.550,83.150 237.350,83.150 237.350,80.050 236.550,80.050 236.550,74.250 237.350,74.250 237.350,71.150 236.550,71.150 236.550,70.150" style="fill:none;stroke-width:0.050000mm;stroke:black"/>
<polygon points="241.600,70.150 241.600,71.150 240.800,71.150 240.800,74.250 241.600,74.250 241.600,80.050 240.800,80.050 240.800,83.150 241.600,83.150 241.600,84.150 255.600,84.150 255.600,83.150 256.399,83.150 256.399,80.050 255.600,80.050 255.600,74.250 256.399,74.250 256.399,71.150 255.600,71.150 255.600,70.150" style="fill:none;stroke-width:0.050000mm;stroke:black"/>
<polygon points="260.649,70.150 260.649,71.150 259.850,71.150 259.850,74.250 260.649,74.250 260.649,80.050 259.850,80.050 259.850,83.150 260.649,83.150 260.649,84.150 274.650,84.150 274.650,83.150 275.450,83.150 275.450,80.050 274.650,80.050 274.650,74.250 275.450,74.250 275.450,71.150 274.650,71.150 274.650,70.150" style="fill:none;stroke-width:0.050000mm;stroke:black"/>
<polygon points="313.037,70.150 313.037,71.150 312.237,71.150 312.237,74.250 313.037,74.250 313.037,80.050 312.237,80.050 312.237,83.150 313.037,83.150 313.037,84.150 327.037,84.150 327.037,83.150 327.837,83.150 327.837,80.050 327.037,80.050 327.037,74.250 327.837,74.250 327.837,71.150 327.037,71.150 327.037,70.150" style="fill:none;stroke-width:0.050000mm;stroke:black"/>
<polygon points="332.087,70.150 332.087,71.150 331.287,71.150 331.287,74.250 332.087,74.250 332.087,80.050 331.287,80.050 331.287,83.150 332.087,83.150 332.087,84.150 346.087,84.150 346.087,83.150 346.887,83.150 346.887,80.050 346.087,80.050 346.087,74.250 346.887,74.250 346.887,71.150 346.087,71.150 346.087,70.150" style="fill:none;stroke-width:0.050000mm;stroke:black"/>
<polygon points="351.137,70.150 351.137,71.150 350.337,71.150 350.337,74.250 351.137,74.250 351.137,80.050 350.337,80.050 350.337,83.150 351.137,83.150 351.137,84.150 365.137,84.150 365.137,83.150 365.937,83.150 365.937,80.050 365.137,80.050 365.137,74.250 365.937,74.250 365.937,71.150 365.137,71.150 365.137,70.150" style="fill:none;stroke-width:0.050000mm;stroke:black"/>
<polygon points="374.950,70.150 374.950,71.150 374.150,71.150 374.150,74.250 374.950,74.250 374.950,80.050 374.150,80.050 374.150,83.150 374.950,83.150 374.950,84.150 388.950,84.150 388.950,83.150 389.750,83.150 389.750,80.050 388.950,80.050 388.950,74.250 389.750,74.250 389.750,71.150 388.950,71.150 388.950,70.150" style="fill:none;stroke-width:0.050000mm;stroke:black"/>
<polygon points="394.000,70.150 394.000,71.150 393.200,71.150 393.200,74.250 394.000,74.250 394.000,80.050 393.200,80.050 393.200,83.150 394.000,83.150 394.000,84.150 408.000,84.150 408.000,83.150 408.800,83.150 408.800,80.050 408.000,80.050 408.000,74.250 408.800,74.250 408.800,71.150 408.000,71.150 408.000,70.150" style="fill:none;stroke-width:0.050000mm;stroke:black"/>
<polygon points="413.050,70.150 413.050,71.150 412.250,71.150 412.250,74.250 413.050,74.250 413.050,80.050 412.250,80.050 412.250,83.150 413.050,83.150 413.050,84.150 427.050,84.150 427.050,83.150 427.850,83.150 427.850,80.050 427.050,80.050 427.050,74.250 427.850,74.250 427.850,71.150 427.050,71.150 427.050,70.150" style="fill:none;stroke-width:0.050000mm;stroke:black"/>
<polygon points="432.100,70.150 432.100,71.150 431.300,71.150 431.300,74.250 432.100,74.250 432.100,80.050 431.300,80.050 431.300,83.150 432.100,83.150 432.100,84.150 446.100,84.150 446.100,83.150 446.900,83.150 446.900,80.050 446.100,80.050 446.100,74.250 446.900,74.250 446.900,71.150 446.100,71.150 446.100,70.150" style="fill:none;stroke-width:0.050000mm;stroke:black"/>
<polygon points="279.700,51.100 279.700,52.100 278.900,52.100 278.900,55.200 279.700,55.200 279.700,55.800 278.175,55.800 278.175,52.570 271.425,52.570 271.425,55.800 270.600,55.800 270.600,58.600 271.425,58.600 271.425,64.870 273.150,64.870 273.150,66.070 276.450,66.070 276.450,64.870 278.175,64.870 278.175,60.400 279.700,60.400 279.700,61.000 278.900,61.000 278.900,64.099 279.700,64.099 279.700,65.099 293.700,65.099 293.700,64.099 294.500,64.099 294.500,61.000 293.700,61.000 293.700,60.400 295.225,60.400 295.225,64.870 296.950,64.870 296.950,66.070 300.250,66.070 300.250,64.870 301.975,64.870 301.975,58.600 302.800,58.600 302.800,55.800 301.975,55.800 301.975,52.570 295.225,52.570 295.225,55.800 293.700,55.800 293.700,55.200 294.500,55.200 294.500,52.100 293.700,52.100 293.700,51.100" style="fill:none;stroke-width:0.050000mm;stroke:black"/>
<polygon points="22.525,51.100 22.525,52.100 21.724,52.100 21.724,55.200 22.525,55.200 22.525,61.000 21.724,61.000 21.724,64.099 22.525,64.099 22.525,65.099 36.525,65.099 36.525,64.099 37.324,64.099 37.324,61.000 36.525,61.000 36.525,55.200 37.324,55.200 37.324,52.100 36.525,52.100 36.525,51.100" style="fill:none;stroke-width:0.050000mm;stroke:black"/>
<polygon points="41.575,51.100 41.575,52.100 40.775,52.100 40.775,55.200 41.575,55.200 41.575,61.000 40.775,61.000 40.775,64.099 41.575,64.099 41.575,65.099 55.575,65.099 55.575,64.099 56.375,64.099 56.375,61.000 55.575,61.000 55.575,55.200 56.375,55.200 56.375,52.100 55.575,52.100 55.575,51.100" style="fill:none;stroke-width:0.050000mm;stroke:black"/>
<polygon points="60.625,51.100 60.625,52.100 59.825,52.100 59.825,55.200 60.625,55.200 60.625,61.000 59.825,61.000 59.825,64.099 60.625,64.099 60.625,65.099 74.625,65.099 74.625,64.099 75.425,64.099 75.425,61.000 74.625,61.000 74.625,55.200 75.425,55.200 75.425,52.100 74.625,52.100 74.625,51.100" style="fill:none;stroke-width:0.050000mm;stroke:black"/>
<polygon points="79.675,51.100 79.675,52.100 78.875,52.100 78.875,55.200 79.675,55.200 79.675,61.000 78.875,61.000 78.875,64.099 79.675,64.099 79.675,65.099 93.675,65.099 93.675,64.099 94.475,64.099 94.475,61.000 93.675,61.000 93.675,55.200 94.475,55.200 94.475,52.100 93.675,52.100 93.675,51.100" style="fill:none;stroke-width:0.050000mm;stroke:black"/>
<polygon points="98.725,51.100 98.725,52.100 97.925,52.100 97.925,55.200 98.725,55.200 98.725,61.000 97.925,61.000 97.925,64.099 98.725,64.099 98.725,65.099 112.725,65.099 112.725,64.099 113.524,64.099 113.524,61.000 112.725,61.000 112.725,55.200 113.524,55.200 113.524,52.100 112.725,52.100 112.725,51.100" style="fill:none;stroke-width:0.050000mm;stroke:black"/>
<polygon points="117.774,51.100 117.774,52.100 116.975,52.100 116.975,55.200 117.774,55.200 117.774,61.000 116.975,61.000 116.975,64.099 117.774,64.099 117.774,65.099 131.774,65.099 131.774,64.099 132.575,64.099 132.575,61.000 131.774,61.000 131.774,55.200 132.575,55.200 132.575,52.100 131.774,52.100 131.774,51.100" style="fill:none;stroke-width:0.050000mm;stroke:black"/>
<polygon points="136.825,51.100 136.825,52.100 136.024,52.100 136.024,55.200 136.825,55.200 136.825,61.000 136.024,61.000 136.024,64.099 136.825,64.099 136.825,65.099 150.825,65.099 150.825,64.099 151.625,64.099 151.625,61.000 150.825,61.000 150.825,55.200 151.625,55.200 151.625,52.100 150.825,52.100 150.825,51.100" style="fill:none;stroke-width:0.050000mm;stroke:black"/>
<polygon points="155.875,51.100 155.875,52.100 155.075,52.100 155.075,55.200 155.875,55.200 155.875,61.000 155.075,61.000 155.075,64.099 155.875,64.099 155.875,65.099 169.875,65.099 169.875,64.099 170.675,64.099 170.675,61.000 169.875,61.000 169.875,55.200 170.675,55.200 170.675,52.100 169.875,52.100 169.875,51.100" style="fill:none;stroke-width:0.050000mm;stroke:black"/>
<polygon points="174.925,51.100 174.925,52.100 174.125,52.100 174.125,55.200 174.925,55.200 174.925,61.000 174.125,61.000 174.125,64.099 174.925,64.099 174.925,65.099 188.925,65.099 188.925,64.099 189.725,64.099 189.725,61.000 188.925,61.000 188.925,55.200 189.725,55.200 189.725,52.100 188.925,52.100 188.925,51.100" style="fill:none;stroke-width:0.050000mm;stroke:black"/>
<polygon points="193.975,51.100 193.975,52.100 193.175,52.100 193.175,55.200 193.975,55.200 193.975,61.000 193.175,61.000 193.175,64.099 193.975,64.099 193.975,65.099 207.975,65.099 207.975,64.099 208.775,64.099 208.775,61.000 207.975,61.000 207.975,55.200 208.775,55.200 208.775,52.100 207.975,52.100 207.975,51.100" style="fill:none;stroke-width:0.050000mm;stroke:black"/>
<polygon points="213.025,51.100 213.025,52.100 212.225,52.100 212.225,55.200 213.025,55.200 213.025,61.000 212.225,61.000 212.225,64.099 213.025,64.099 213.025,65.099 227.025,65.099 227.025,64.099 227.825,64.099 227.825,61.000 227.025,61.000 227.025,55.200 227.825,55.200 227.825,52.100 227.025,52.100 227.025,51.100" style="fill:none;stroke-width:0.050000mm;stroke:black"/>
<polygon points="232.075,51.100 232.075,52.100 231.275,52.100 231.275,55.200 232.075,55.200 232.075,61.000 231.275,61.000 231.275,64.099 232.075,64.099 232.075,65.099 246.075,65.099 246.075,64.099 246.875,64.099 246.875,61.000 246.075,61.000 246.075,55.200 246.875,55.200 246.875,52.100 246.075,52.100 246.075,51.100" style="fill:none;stroke-width:0.050000mm;stroke:black"/>
<polygon points="251.125,51.100 251.125,52.100 250.325,52.100 250.325,55.200 251.125,55.200 251.125,61.000 250.325,61.000 250.325,64.099 251.125,64.099 251.125,65.099 265.125,65.099 265.125,64.099 265.925,64.099 265.925,61.000 265.125,61.000 265.125,55.200 265.925,55.200 265.925,52.100 265.125,52.100 265.125,51.100" style="fill:none;stroke-width:0.050000mm;stroke:black"/>
<polygon points="313.037,51.100 313.037,52.100 312.237,52.100 312.237,55.200 313.037,55.200 313.037,61.000 312.237,61.000 312.237,64.099 313.037,64.099 313.037,65.099 327.037,65.099 327.037,64.099 327.837,64.099 327.837,61.000 327.037,61.000 327.037,55.200 327.837,55.200 327.837,52.100 327.037,52.100 327.037,51.100" style="fill:none;stroke-width:0.050000mm;stroke:black"/>
<polygon points="332.087,51.100 332.087,52.100 331.287,52.100 331.287,55.200 332.087,55.200 332.087,61.000 331.287,61.000 331.287,64.099 332.087,64.099 332.087,65.099 346.087,65.099 346.087,64.099 346.887,64.099 346.887,61.000 346.087,61.000 346.087,55.200 346.887,55.200 346.887,52.100 346.087,52.100 346.087,51.100" style="fill:none;stroke-width:0.050000mm;stroke:black"/>
<polygon points="351.137,51.100 351.137,52.100 350.337,52.100 350.337,55.200 351.137,55.200 351.137,61.000 350.337,61.000 350.337,64.099 351.137,64.099 351.137,65.099 365.137,65.099 365.137,64.099 365.937,64.099 365.937,61.000 365.137,61.000 365.137,55.200 365.937,55.200 365.937,52.100 365.137,52.100 365.137,51.100" style="fill:none;stroke-width:0.050000mm;stroke:black"/>
<polygon points="374.950,51.100 374.950,52.100 374.150,52.100 374.150,55.200 374.950,55.200 374.950,61.000 374.150,61.000 374.150,64.099 374.950,64.099 374.950,65.099 388.950,65.099 388.950,64.099 389.750,64.099 389.750,61.000 388.950,61.000 388.950,55.200 389.750,55.200 389.750,52.100 388.950,52.100 388.950,51.100" style="fill:none;stroke-width:0.050000mm;stroke:black"/>
<polygon points="394.000,51.100 394.000,52.100 393.200,52.100 393.200,55.200 394.000,55.200 394.000,61.000 393.200,61.000 393.200,64.099 394.000,64.099 394.000,65.099 408.000,65.099 408.000,64.099 408.800,64.099 408.800,61.000 408.000,61.000 408.000,55.200 408.800,55.200 408.800,52.100 408.000,52.100 408.000,51.100" style="fill:none;stroke-width:0.050000mm;stroke:black"/>
<polygon points="413.050,51.100 413.050,52.100 412.250,52.100 412.250,55.200 413.050,55.200 413.050,61.000 412.250,61.000 412.250,64.099 413.050,64.099 413.050,65.099 427.050,65.099 427.050,64.099 427.850,64.099 427.850,61.000 427.050,61.000 427.050,55.200 427.850,55.200 427.850,52.100 427.050,52.100 427.050,51.100" style="fill:none;stroke-width:0.050000mm;stroke:black"/>
<polygon points="432.100,51.100 432.100,52.100 431.300,52.100 431.300,55.200 432.100,55.200 432.100,61.000 431.300,61.000 431.300,64.099 432.100,64.099 432.100,65.099 446.100,65.099 446.100,64.099 446.900,64.099 446.900,61.000 446.100,61.000 446.100,55.200 446.900,55.200 446.900,52.100 446.100,52.100 446.100,51.100" style="fill:none;stroke-width:0.050000mm;stroke:black"/>
<polygon points="22.525,22.525 22.525,23.525 21.724,23.525 21.724,26.625 22.525,26.625 22.525,32.424 21.724,32.424 21.724,35.525 22.525,35.525 22.525,36.525 36.525,36.525 36.525,35.525 37.324,35.525 37.324,32.424 36.525,32.424 36.525,26.625 37.324,26.625 37.324,23.525 36.525,23.525 36.525,22.525" style="fill:none;stroke-width:0.050000mm;stroke:black"/>
<polygon points="60.625,22.525 60.625,23.525 59.825,23.525 59.825,26.625 60.625,26.625 60.625,32.424 59.825,32.424 59.825,35.525 60.625,35.525 60.625,36.525 74.625,36.525 74.625,35.525 75.425,35.525 75.425,32.424 74.625,32.424 74.625,26.625 75.425,26.625 75.425,23.525 74.625,23.525 74.625,22.525" style="fill:none;stroke-width:0.050000mm;stroke:black"/>
<polygon points="79.675,22.525 79.675,23.525 78.875,23.525 78.875,26.625 79.675,26.625 79.675,32.424 78.875,32.424 78.875,35.525 79.675,35.525 79.675,36.525 93.675,36.525 93.675,35.525 94.475,35.525 94.475,32.424 93.675,32.424 93.675,26.625 94.475,26.625 94.475,23.525 93.675,23.525 93.675,22.525" style="fill:none;stroke-width:0.050000mm;stroke:black"/>
<polygon points="98.725,22.525 98.725,23.525 97.925,23.525 97.925,26.625 98.725,26.625 98.725,32.424 97.925,32.424 97.925,35.525 98.725,35.525 98.725,36.525 112.725,36.525 112.725,35.525 113.524,35.525 113.524,32.424 112.725,32.424 112.725,26.625 113.524,26.625 113.524,23.525 112.725,23.525 112.725,22.525" style="fill:none;stroke-width:0.050000mm;stroke:black"/>
<polygon points="117.774,22.525 117.774,23.525 116.975,23.525 116.975,26.625 117.774,26.625 117.774,32.424 116.975,32.424 116.975,35.525 117.774,35.525 117.774,36.525 131.774,36.525 131.774,35.525 132.575,35.525 132.575,32.424 131.774,32.424 131.774,26.625 132.575,26.625 132.575,23.525 131.774,23.525 131.774,22.525" style="fill:none;stroke-width:0.050000mm;stroke:black"/>
<polygon points="146.350,22.525 146.350,23.525 145.549,23.525 145.549,26.625 146.350,26.625 146.350,32.424 145.549,32.424 145.549,35.525 146.350,35.525 146.350,36.525 160.350,36.525 160.350,35.525 161.150,35.525 161.150,32.424 160.350,32.424 160.350,26.625 161.150,26.625 161.150,23.525 160.350,23.525 160.350,22.525" style="fill:none;stroke-width:0.050000mm;stroke:black"/>
<polygon points="165.400,22.525 165.400,23.525 164.600,23.525 164.600,26.625 165.400,26.625 165.400,32.424 164.600,32.424 164.600,35.525 165.400,35.525 165.400,36.525 179.400,36.525 179.400,35.525 180.200,35.525 180.200,32.424 179.400,32.424 179.400,26.625 180.200,26.625 180.200,23.525 179.400,23.525 179.400,22.525" style="fill:none;stroke-width:0.050000mm;stroke:black"/>
<polygon points="184.450,22.525 184.450,23.525 183.650,23.525 183.650,26.625 184.450,26.625 184.450,32.424 183.650,32.424 183.650,35.525 184.450,35.525 184.450,36.525 198.450,36.525 198.450,35.525 199.250,35.525 199.250,32.424 198.450,32.424 198.450,26.625 199.250,26.625 199.250,23.525 198.450,23.525 198.450,22.525" style="fill:none;stroke-width:0.050000mm;stroke:black"/>
<polygon points="203.500,22.525 203.500,23.525 202.700,23.525 202.700,26.625 203.500,26.625 203.500,32.424 202.700,32.424 202.700,35.525 203.500,35.525 203.500,36.525 217.500,36.525 217.500,35.525 218.300,35.525 218.300,32.424 217.500,32.424 217.500,26.625 218.300,26.625 218.300,23.525 217.500,23.525 217.500,22.525" style="fill:none;stroke-width:0.050000mm;stroke:black"/>
<polygon points="232.075,22.525 232.075,23.525 231.275,23.525 231.275,26.625 232.075,26.625 232.075,32.424 231.275,32.424 231.275,35.525 232.075,35.525 232.075,36.525 246.075,36.525 246.075,35.525 246.875,35.525 246.875,32.424 246.075,32.424 246.075,26.625 246.875,26.625 246.875,23.525 246.075,23.525 246.075,22.525" style="fill:none;stroke-width:0.050000mm;stroke:black"/>
<polygon points="251.125,22.525 251.125,23.525 250.325,23.525 250.325,26.625 251.125,26.625 251.125,32.424 250.325,32.424 250.325,35.525 251.125,35.525 251.125,36.525 265.125,36.525 265.125,35.525 265.925,35.525 265.925,32.424 265.125,32.424 265.125,26.625 265.925,26.625 265.925,23.525 265.125,23.525 265.125,22.525" style="fill:none;stroke-width:0.050000mm;stroke:black"/>
<polygon points="270.175,22.525 270.175,23.525 269.375,23.525 269.375,26.625 270.175,26.625 270.175,32.424 269.375,32.424 269.375,35.525 270.175,35.525 270.175,36.525 284.175,36.525 284.175,35.525 284.975,35.525 284.975,32.424 284.175,32.424 284.175,26.625 284.975,26.625 284.975,23.525 284.175,23.525 284.175,22.525" style="fill:none;stroke-width:0.050000mm;stroke:black"/>
<polygon points="289.225,22.525 289.225,23.525 288.425,23.525 288.425,26.625 289.225,26.625 289.225,32.424 288.425,32.424 288.425,35.525 289.225,35.525 289.225,36.525 303.225,36.525 303.225,35.525 304.025,35.525 304.025,32.424 303.225,32.424 303.225,26.625 304.025,26.625 304.025,23.525 303.225,23.525 303.225,22.525" style="fill:none;stroke-width:0.050000mm;stroke:black"/>
<polygon points="313.037,22.525 313.037,23.525 312.237,23.525 312.237,26.625 313.037,26.625 313.037,32.424 312.237,32.424 312.237,35.525 313.037,35.525 313.037,36.525 327.037,36.525 327.037,35.525 327.837,35.525 327.837,32.424 327.037,32.424 327.037,26.625 327.837,26.625 327.837,23.525 327.037,23.525 327.037,22.525" style="fill:none;stroke-width:0.050000mm;stroke:black"/>
<polygon points="332.087,22.525 332.087,23.525 331.287,23.525 331.287,26.625 332.087,26.625 332.087,32.424 331.287,32.424 331.287,35.525 332.087,35.525 332.087,36.525 346.087,36.525 346.087,35.525 346.887,35.525 346.887,32.424 346.087,32.424 346.087,26.625 346.887,26.625 346.887,23.525 346.087,23.525 346.087,22.525" style="fill:none;stroke-width:0.050000mm;stroke:black"/>
<polygon points="351.137,22.525 351.137,23.525 350.337,23.525 350.337,26.625 351.137,26.625 351.137,32.424 350.337,32.424 350.337,35.525 351.137,35.525 351.137,36.525 365.137,36.525 365.137,35.525 365.937,35.525 365.937,32.424 365.137,32.424 365.137,26.625 365.937,26.625 365.937,23.525 365.137,23.525 365.137,22.525" style="fill:none;stroke-width:0.050000mm;stroke:black"/>
<polygon points="158.911,8.073 158.493,8.286 158.161,8.618 157.948,9.036 157.875,9.500 157.948,9.963 158.161,10.381 158.493,10.713 158.911,10.926 159.375,11.000 159.838,10.926 160.257,10.713 160.588,10.381 160.801,9.963 160.875,9.500 160.801,9.036 160.588,8.618 160.257,8.286 159.838,8.073 159.375,8.000" style="fill:none;stroke-width:0.050000mm;stroke:black"/>
<polygon points="308.787,8.073 308.368,8.286 308.037,8.618 307.824,9.036 307.750,9.500 307.824,9.963 308.037,10.381 308.368,10.713 308.787,10.926 309.250,11.000 309.714,10.926 310.132,10.713 310.464,10.381 310.677,9.963 310.750,9.500 310.677,9.036 310.464,8.618 310.132,8.286 309.714,8.073 309.250,8.000" style="fill:none;stroke-width:0.050000mm;stroke:black"/>
<polygon points="458.662,8.073 458.244,8.286 457.912,8.618 457.699,9.036 457.626,9.500 457.699,9.963 457.912,10.381 458.244,10.713 458.662,10.926 459.126,11.000 459.589,10.926 460.007,10.713 460.339,10.381 460.552,9.963 460.626,9.500 460.552,9.036 460.339,8.618 460.007,8.286 459.589,8.073 459.126,8.000" style="fill:none;stroke-width:0.050000mm;stroke:black"/>
<polygon points="9.036,8.073 8.618,8.286 8.286,8.618 8.073,9.036 8.000,9.500 8.073,9.963 8.286,10.381 8.618,10.713 9.036,10.926 9.500,11.000 9.963,10.926 10.381,10.713 10.713,10.381 10.926,9.963 11.000,9.500 10.926,9.036 10.713,8.618 10.381,8.286 9.963,8.073 9.500,8.000" style="fill:none;stroke-width:0.050000mm;stroke:black"/>
</svg>
